<svg width="332" height="25" viewBox="0 0 332 25" fill="none" xmlns="http://www.w3.org/2000/svg">
<path d="M0.545455 3.72727V1.22727H18V3.72727H10.6818V24.5H7.86364V3.72727H0.545455ZM22.3494 24.5V1.22727H25.1676V11.5909H37.5767V1.22727H40.3949V24.5H37.5767V14.0909H25.1676V24.5H22.3494ZM46.0369 24.5V1.22727H60.0824V3.72727H48.8551V11.5909H59.3551V14.0909H48.8551V22H60.2642V24.5H46.0369ZM73.1051 24.5V1.22727H78.7301V10.5682H87.9006V1.22727H93.5142V24.5H87.9006V15.1477H78.7301V24.5H73.1051ZM111.122 1.22727H116.736V16.2386C116.736 17.9735 116.323 19.4848 115.497 20.7727C114.671 22.053 113.52 23.0455 112.043 23.75C110.565 24.447 108.849 24.7955 106.895 24.7955C104.918 24.7955 103.19 24.447 101.713 23.75C100.236 23.0455 99.0881 22.053 98.2699 20.7727C97.4517 19.4848 97.0426 17.9735 97.0426 16.2386V1.22727H102.668V15.75C102.668 16.553 102.842 17.2689 103.19 17.8977C103.546 18.5265 104.043 19.0189 104.679 19.375C105.315 19.7311 106.054 19.9091 106.895 19.9091C107.736 19.9091 108.471 19.7311 109.099 19.375C109.736 19.0189 110.232 18.5265 110.588 17.8977C110.944 17.2689 111.122 16.553 111.122 15.75V1.22727ZM120.261 1.22727H127.227L133.136 15.6364H133.409L139.318 1.22727H146.284V24.5H140.807V10.2045H140.614L135.023 24.3523H131.523L125.932 10.125H125.739V24.5H120.261V1.22727ZM154.827 24.5H148.781L156.634 1.22727H164.122L171.974 24.5H165.929L160.463 7.09091H160.281L154.827 24.5ZM154.02 15.3409H166.656V19.6136H154.02V15.3409ZM194.287 1.22727V24.5H189.514L180.253 11.0682H180.105V24.5H174.48V1.22727H179.321L188.48 14.6364H188.673V1.22727H194.287ZM206.71 1.22727L213.619 20.8182H213.892L220.801 1.22727H223.756L215.21 24.5H212.301L203.756 1.22727H206.71ZM230.199 1.22727V24.5H227.381V1.22727H230.199ZM235.849 24.5V1.22727H238.668V22H249.486V24.5H235.849ZM253.849 24.5V1.22727H256.668V22H267.486V24.5H253.849ZM274.273 24.5H271.318L279.864 1.22727H282.773L291.318 24.5H288.364L281.409 4.90909H281.227L274.273 24.5ZM275.364 15.4091H287.273V17.9091H275.364V15.4091ZM309.759 8.5C309.509 7.73485 309.179 7.04924 308.77 6.44318C308.368 5.82954 307.887 5.30682 307.327 4.875C306.774 4.44318 306.145 4.11364 305.44 3.88636C304.736 3.65909 303.963 3.54545 303.122 3.54545C301.743 3.54545 300.49 3.90151 299.361 4.61364C298.232 5.32576 297.334 6.375 296.668 7.76136C296.001 9.14773 295.668 10.8485 295.668 12.8636C295.668 14.8788 296.005 16.5795 296.679 17.9659C297.353 19.3523 298.266 20.4015 299.418 21.1136C300.569 21.8258 301.865 22.1818 303.304 22.1818C304.637 22.1818 305.812 21.8977 306.827 21.3295C307.849 20.7538 308.645 19.9432 309.213 18.8977C309.789 17.8447 310.077 16.6061 310.077 15.1818L310.94 15.3636H303.94V12.8636H312.804V15.3636C312.804 17.2803 312.395 18.947 311.577 20.3636C310.766 21.7803 309.645 22.8788 308.213 23.6591C306.789 24.4318 305.152 24.8182 303.304 24.8182C301.243 24.8182 299.433 24.3333 297.872 23.3636C296.319 22.3939 295.107 21.0152 294.236 19.2273C293.372 17.4394 292.94 15.3182 292.94 12.8636C292.94 11.0227 293.187 9.36742 293.679 7.89773C294.179 6.42045 294.884 5.16288 295.793 4.125C296.702 3.08712 297.777 2.29167 299.02 1.73864C300.262 1.18561 301.63 0.90909 303.122 0.90909C304.349 0.90909 305.493 1.0947 306.554 1.46591C307.622 1.82954 308.573 2.34848 309.406 3.02273C310.247 3.68939 310.948 4.48864 311.509 5.42045C312.069 6.3447 312.455 7.37121 312.668 8.5H309.759ZM317.631 24.5V1.22727H331.676V3.72727H320.449V11.5909H330.949V14.0909H320.449V22H331.858V24.5H317.631Z" fill="white"/>
</svg>
