<svg width="300" height="225" viewBox="0 0 300 225" fill="none" xmlns="http://www.w3.org/2000/svg">
<g clip-path="url(#clip0_580_11618)">
<path d="M83.5154 170.106L66.5847 171.947L58.4825 166.424L53.7938 171.947L56.0467 183.6L58.6197 192.8L74.2467 184.864L86.8317 183.726L83.5154 170.106Z" fill="#A0616A"/>
<path d="M169.301 150.591L128.435 149.854L78.7295 170.838L85.3565 185.202L130.276 172.679L199.857 192.56L190.285 145.439L169.301 150.591Z" fill="#2F2E41"/>
<path d="M57.2074 171.446L65.3325 170.811L55.0003 148.986C55.0003 148.986 50.2144 147.293 49.4768 152.559C48.7392 157.82 55.0232 193.459 56.8643 193.459C58.7055 193.459 64.8808 189.857 64.8808 189.857L55.7379 172.549L57.2131 171.446H57.2074Z" fill="#2F2E41"/>
<path d="M260.935 165.47C260.118 165.556 259.226 165.688 258.277 165.882C254.251 166.7 254.171 169.433 254.205 170.056L254.177 170.039C253.771 170.685 253.519 171.343 253.365 171.966L253.182 163.595C253.302 163.349 253.411 163.063 253.502 162.777C253.805 163.703 254.297 164.578 254.72 164.521C255.275 164.447 255.515 162.817 255.412 161.662C256.115 162.566 257.299 163.538 257.745 163.24C258.099 163 257.888 162.017 257.499 161.125C258.311 161.616 259.209 161.937 259.489 161.622C259.872 161.199 258.957 159.752 258.117 158.946C259.243 159.049 260.678 158.872 260.77 158.357C260.85 157.934 259.992 157.402 259.083 157.059C259.998 156.819 260.855 156.396 260.827 155.979C260.792 155.481 259.523 155.15 258.425 155.104C259.254 154.458 260.015 153.56 259.78 153.154C259.569 152.782 258.574 152.925 257.653 153.251C258.197 152.474 258.58 151.599 258.288 151.301C257.928 150.93 256.641 151.57 255.761 152.285C255.932 151.176 255.847 149.775 255.349 149.649C254.932 149.54 254.343 150.358 253.937 151.244C253.759 150.312 253.394 149.432 252.976 149.432C252.381 149.432 251.901 151.227 251.901 152.393C251.901 152.462 251.901 152.519 251.901 152.582C251.844 152.514 251.775 152.439 251.695 152.365C250.855 151.553 249.237 150.65 248.819 151.073C248.528 151.37 248.911 152.245 249.454 153.022C248.533 152.697 247.538 152.548 247.327 152.925C247.041 153.428 248.27 154.675 249.265 155.281C249.208 155.275 249.139 155.27 249.077 155.264C247.91 155.184 246.086 155.544 246.046 156.139C246.017 156.556 246.875 156.979 247.79 157.219C246.875 157.562 246.023 158.094 246.103 158.517C246.195 159.032 247.63 159.209 248.756 159.106C247.916 159.913 247.001 161.359 247.384 161.782C247.664 162.091 248.562 161.771 249.374 161.285C248.985 162.177 248.774 163.16 249.128 163.4C249.597 163.715 250.895 162.617 251.575 161.674C251.507 162.829 251.781 164.418 252.33 164.481C252.559 164.51 252.805 164.264 253.022 163.886L252.399 172.886C252.256 173.933 253.182 174.619 253.268 175.048L253.399 181.143C253.251 180.708 253.045 180.262 252.77 179.822L252.742 179.839C252.776 179.21 252.696 176.483 248.671 175.665C247.721 175.471 246.829 175.339 246.012 175.254C245.045 175.151 244.668 176.472 245.543 176.9C246.807 177.518 247.996 178.295 248.613 179.216C250.197 181.572 252.381 180.211 252.696 179.999C253.045 180.577 253.273 181.16 253.416 181.715L253.485 184.951C253.468 185.025 253.456 185.071 253.456 185.071L253.491 185.083L253.662 192.916L255.263 192.905L254.692 184.9C254.789 184.465 255.086 182.996 254.692 181.469L254.12 175.179L253.376 172.709C253.485 171.943 253.737 171.085 254.246 170.233C254.554 170.445 256.744 171.806 258.328 169.45C258.946 168.529 260.135 167.752 261.399 167.134C262.268 166.705 261.896 165.385 260.93 165.487L260.935 165.47ZM253.634 184.002L253.605 182.63C253.668 183.15 253.662 183.613 253.634 184.002Z" fill="#F2F2F2"/>
<path d="M0 192.755C0 193.132 0.303048 193.435 0.680428 193.435H299.32C299.697 193.435 300 193.132 300 192.755C300 192.377 299.697 192.074 299.32 192.074H0.680428C0.303048 192.074 0 192.377 0 192.755Z" fill="#3F3D56"/>
<path d="M198.153 101.498L202.207 87.8775L213.986 87.5059L218.772 104.442L198.153 101.498Z" fill="#A0616A"/>
<path opacity="0.1" d="M198.153 101.498L202.207 87.8775L213.986 87.5059L218.772 104.442L198.153 101.498Z" fill="black"/>
<path d="M216.239 99.5989L197.095 98.8613L191.16 111.069L182 165.132L230.047 175.99C230.047 175.99 232.992 115.609 226.365 107.141C219.738 98.6726 216.239 99.5932 216.239 99.5932V99.5989Z" fill="#E6E6E6"/>
<path d="M160.169 57.2642C159.369 53.0044 156.527 49.9568 153.811 50.4657C151.095 50.9745 149.545 54.8398 150.346 59.1054C150.643 60.815 151.341 62.4217 152.387 63.8055L155.995 81.8225L163.114 80.3759L159.958 62.3874C160.432 60.7178 160.501 58.9624 160.158 57.2642H160.169Z" fill="#A0616A"/>
<path d="M213.374 104.505L174.275 96.8033L163.285 63.7539L150.975 66.67L163.325 115.489L207.582 121.31L213.374 104.505Z" fill="#E6E6E6"/>
<path d="M153.828 4.32794C153.788 4.36797 153.754 4.40227 153.714 4.4423C147.796 -1.43568 138.258 -1.48714 132.272 4.32794C126.268 10.1602 126.062 19.7376 131.814 25.8215L131.957 25.9701L153.142 47.7838L175.104 26.4561L175.041 26.3932C175.076 26.3589 175.116 26.3246 175.156 26.2903C181.222 20.4009 181.36 10.7091 175.47 4.64814C169.581 -1.41853 159.889 -1.55576 153.828 4.33366V4.32794Z" fill="#F6AD55"/>
<path d="M159.066 112.51C158.997 112.579 158.928 112.653 158.86 112.722C147.956 101.904 130.396 101.806 119.372 112.51C108.314 123.254 107.936 140.894 118.532 152.095H118.526L118.789 152.375L157.808 192.549L198.25 153.267L198.136 153.153C198.205 153.09 198.273 153.027 198.342 152.964C209.509 142.118 209.772 124.272 198.925 113.099C188.078 101.932 170.233 101.669 159.06 112.516L159.066 112.51Z" fill="#F6AD55"/>
<path d="M218.72 157.287C218.72 157.287 233.169 169.323 227.806 176.625C222.448 183.926 204.22 196.997 195.986 192.943C187.752 188.889 170.662 159.591 170.662 159.591L166.19 189.604L154.491 188.569C154.491 188.569 145.995 146.177 153.828 139.676C161.667 133.174 197.347 144.667 197.347 144.667L218.715 157.292L218.72 157.287Z" fill="#2F2E41"/>
<path d="M157.413 184.584L154.063 194.996L147.081 204.78L152.433 212.79L169.444 201.589L169.386 195.825L166.716 192.229L164.829 185.333L157.413 184.584Z" fill="#A0616A"/>
<path d="M152.061 208.845L147.79 201.904L133.084 221.053C133.084 221.053 133.764 226.084 138.784 224.335C143.805 222.585 174.927 206.632 174.087 204.991C173.246 203.35 169.798 194.533 169.798 194.533L153.719 209.646L152.067 208.839L152.061 208.845Z" fill="#2F2E41"/>
<path d="M161.09 157.19C156.773 157.618 153.496 160.191 153.771 162.936C154.045 165.681 157.762 167.562 162.079 167.133C163.806 166.984 165.47 166.424 166.939 165.503L185.196 163.462L184.367 156.246L166.173 157.841C164.555 157.224 162.811 157.001 161.09 157.195V157.19Z" fill="#A0616A"/>
<path d="M212.745 108.256L201.698 146.543L167.826 154.639L169.667 167.161L219.372 159.059L228.984 115.472L212.745 108.256Z" fill="#E6E6E6"/>
<path d="M206.598 91.9543C215.238 91.9543 222.243 84.9501 222.243 76.3101C222.243 67.6701 215.238 60.666 206.598 60.666C197.958 60.666 190.954 67.6701 190.954 76.3101C190.954 84.9501 197.958 91.9543 206.598 91.9543Z" fill="#A0616A"/>
<path d="M207.845 55.2747C207.393 55.5378 206.787 55.1375 206.638 54.6343C206.495 54.1312 206.661 53.5937 206.833 53.1019C207.113 52.2671 207.393 51.4323 207.679 50.6032C208.279 48.8307 208.914 46.9952 210.212 45.6458C212.168 43.6103 215.278 43.0899 218.08 43.4673C221.676 43.9476 225.222 45.8974 226.897 49.1166C228.567 52.3357 227.857 56.83 224.838 58.837C229.144 63.7715 230.642 69.2721 230.408 75.8134C230.173 82.3603 223.037 88.3813 218.389 92.9899C217.348 92.3609 216.405 89.4105 216.976 88.3355C217.548 87.2663 216.73 86.0198 217.434 85.0363C218.137 84.0528 218.732 85.6195 218.017 84.6418C217.565 84.0242 219.326 82.5948 218.657 82.2288C215.415 80.4334 214.335 76.3909 212.293 73.2918C209.835 69.558 205.626 67.025 201.178 66.6076C198.725 66.3789 196.135 66.7963 194.128 68.22C192.115 69.6438 190.817 72.1882 191.28 74.6069C190.074 73.3833 189.473 71.5821 189.696 69.8782C189.925 68.1743 190.971 66.5961 192.458 65.727C191.555 62.7423 192.327 59.3058 194.425 56.9958C196.524 54.6858 205.026 55.0803 208.085 55.6864L207.851 55.2805L207.845 55.2747Z" fill="#2F2E41"/>
<path d="M208.325 66.6934C212.379 67.1336 215.307 70.6444 217.777 73.8865C219.201 75.7562 220.693 77.8204 220.659 80.1704C220.624 82.5433 219.035 84.5846 218.274 86.8374C217.034 90.5198 218.24 94.8939 221.196 97.4155C218.28 97.9702 215.124 95.7802 214.621 92.8527C214.032 89.4448 216.616 86.157 216.313 82.7091C216.044 79.6729 213.654 77.34 211.619 75.0701C209.583 72.8001 207.679 69.7924 208.611 66.8935L208.325 66.6991V66.6934Z" fill="#2F2E41"/>
</g>
<defs>
<clipPath id="clip0_580_11618">
<rect width="300" height="224.713" fill="white"/>
</clipPath>
</defs>
</svg>
