<svg width="332" height="248" viewBox="0 0 332 248" fill="none" xmlns="http://www.w3.org/2000/svg">
<g clip-path="url(#clip0_1184_18223)">
<path d="M34.9915 -0.286716H126.083C130.478 -0.286722 134.743 1.19878 138.176 3.9256C141.609 6.65242 144.006 10.4583 144.973 14.7176L190.999 217.505C191.501 219.717 191.51 222.011 191.025 224.226C190.54 226.442 189.573 228.526 188.192 230.331C186.81 232.136 185.048 233.619 183.029 234.676C181.01 235.733 178.782 236.339 176.502 236.451L82.8598 241.034C77.8455 241.279 72.9127 239.704 68.9817 236.602C65.0507 233.5 62.3902 229.084 61.4966 224.177L35.3876 80.8037L33.4452 81.355L28.4494 54.1805L30.4489 53.684L23.1609 13.6635C22.8488 11.9493 22.9211 10.1879 23.3729 8.50468C23.8247 6.82151 24.6447 5.25805 25.7746 3.92578C26.9044 2.59351 28.3163 1.52523 29.9094 0.79709C31.5026 0.068954 33.2378 -0.301116 34.9915 -0.286716Z" fill="#3F3D56"/>
<path d="M114.091 4.08594H124.724C127.777 4.08594 130.739 5.1233 133.117 7.0258C135.496 8.9283 137.147 11.5815 137.798 14.545L181.977 215.678C182.232 216.836 182.231 218.035 181.977 219.192C181.722 220.35 181.218 221.44 180.501 222.387C179.783 223.334 178.868 224.116 177.818 224.679C176.769 225.243 175.609 225.575 174.418 225.652L81.0788 231.729C78.4456 231.9 75.841 231.103 73.762 229.488C71.6831 227.874 70.2754 225.555 69.8076 222.975L32.1093 15.0853C31.8653 13.7397 31.9216 12.3574 32.2741 11.0358C32.6267 9.71417 33.267 8.48554 34.1498 7.43659C35.0326 6.38763 36.1364 5.54391 37.3833 4.96497C38.6303 4.38602 39.9899 4.08596 41.3663 4.08596H51.4535C52.4298 4.08596 53.3788 4.40565 54.1537 4.99554C54.9286 5.58543 55.4861 6.41262 55.7399 7.34903C55.964 8.17572 56.4562 8.90598 57.1403 9.42675C57.8244 9.94752 58.6622 10.2298 59.5241 10.2298H107.411C109.099 10.2298 110.725 9.59696 111.963 8.4579C113.201 7.31884 113.961 5.75744 114.091 4.08594Z" fill="white"/>
<path d="M39.3718 38.2832H140.632L151.419 86.5647L48.8362 88.445L39.3718 38.2832Z" fill="#F6AD55"/>
<path d="M135.53 129.717H159.369L160.126 134.25H136.287L135.53 129.717Z" fill="#F6AD55"/>
<path d="M154.926 106.592L53.8221 108.719L53.8322 109.191L154.936 107.065L154.926 106.592Z" fill="#2F2E41"/>
<path d="M158.018 120.533L55.0112 122.896L55.0222 123.369L158.029 121.006L158.018 120.533Z" fill="#2F2E41"/>
<path d="M145.373 178.227H169.212L169.969 182.76H146.13L145.373 178.227Z" fill="#F6AD55"/>
<path d="M164.769 155.1L63.6651 157.227L63.6752 157.699L164.779 155.572L164.769 155.1Z" fill="#2F2E41"/>
<path d="M167.861 169.043L64.8541 171.406L64.8651 171.879L167.872 169.516L167.861 169.043Z" fill="#2F2E41"/>
<path d="M233.036 242.323L228.525 242.323L226.379 225.041L233.037 225.041L233.036 242.323Z" fill="#A0616A"/>
<path d="M234.186 246.668L219.642 246.667V246.484C219.642 244.993 220.238 243.563 221.3 242.508C222.361 241.454 223.801 240.861 225.303 240.861L234.186 240.862L234.186 246.668Z" fill="#2F2E41"/>
<path d="M289.071 239.39L284.681 240.417L278.603 224.084L285.083 222.568L289.071 239.39Z" fill="#A0616A"/>
<path d="M291.193 243.357L277.036 246.668L276.994 246.49C276.65 245.038 276.9 243.51 277.69 242.242C278.48 240.974 279.745 240.07 281.206 239.728L289.853 237.705L291.193 243.357Z" fill="#2F2E41"/>
<path d="M232.114 169.433C232.123 168.532 232.391 147.278 238.256 139.242L238.343 139.123L258.783 141.924L258.326 146.385C259.225 147.254 266.297 154.594 268.339 171.976L290.034 229.854L279.948 230.765L250.092 167.583L234.292 236.262H224.293L232.114 169.433Z" fill="#2F2E41"/>
<path d="M235.862 140.025L237.86 129.606C237.469 129.106 235.736 126.704 236.121 123.888C236.373 122.052 237.477 120.441 239.403 119.1L244.582 107.097L244.652 107.056C245 106.852 253.246 102.116 257.742 106.584C257.854 106.671 268.922 115.398 264.477 127.171L258.991 143.523L235.862 140.025Z" fill="#1565C0"/>
<path d="M228.91 154.121C229.449 154.059 229.968 153.882 230.43 153.6C230.892 153.318 231.286 152.939 231.585 152.489C231.884 152.04 232.08 151.531 232.159 150.998C232.238 150.465 232.198 149.921 232.043 149.405L242.738 141.751L236.336 139.332L227.161 146.971C226.306 147.288 225.597 147.905 225.169 148.706C224.741 149.507 224.623 150.436 224.839 151.318C225.054 152.199 225.588 152.971 226.338 153.488C227.089 154.004 228.004 154.229 228.91 154.121Z" fill="#A0616A"/>
<path d="M230.876 141.741L247.204 128.962L242.35 112.489C242.121 111.708 242.056 110.89 242.16 110.084C242.263 109.278 242.533 108.502 242.951 107.804C243.339 107.146 243.86 106.575 244.483 106.129C245.105 105.683 245.814 105.371 246.565 105.213C249.36 104.625 251.898 106.18 254.105 109.834L254.122 109.867C254.487 110.754 262.994 131.64 256.499 136.107C250.145 140.476 235.412 146.836 235.264 146.9L235.091 146.975L230.876 141.741Z" fill="#1565C0"/>
<path d="M252.577 102.24C258.039 102.24 262.468 97.8412 262.468 92.4149C262.468 86.9887 258.039 82.5898 252.577 82.5898C247.114 82.5898 242.685 86.9887 242.685 92.4149C242.685 97.8412 247.114 102.24 252.577 102.24Z" fill="#A0616A"/>
<path d="M268.084 88.9074C272.917 88.9074 276.834 85.0158 276.834 80.2154C276.834 75.415 272.917 71.5234 268.084 71.5234C263.251 71.5234 259.333 75.415 259.333 80.2154C259.333 85.0158 263.251 88.9074 268.084 88.9074Z" fill="#2F2E41"/>
<path d="M275.632 87.4117C274.499 88.2248 273.187 88.7567 271.805 88.9628C270.423 89.1689 269.011 89.0433 267.688 88.5965C266.365 88.1496 265.169 87.3945 264.2 86.3944C263.231 85.3942 262.517 84.1781 262.118 82.8477C262.269 84.0399 262.667 85.1881 263.288 86.2197C263.908 87.2514 264.737 88.1441 265.722 88.8416C266.707 89.539 267.827 90.026 269.011 90.2718C270.195 90.5176 271.418 90.5169 272.601 90.2697C273.785 90.0225 274.905 89.5342 275.889 88.8356C276.873 88.137 277.701 87.2433 278.32 86.2109C278.939 85.1785 279.335 84.0298 279.485 82.8375C279.634 81.6451 279.533 80.4349 279.188 79.2832C279.384 80.8305 279.158 82.4016 278.532 83.8318C277.906 85.262 276.904 86.4985 275.632 87.4117Z" fill="#2F2E41"/>
<path d="M241.098 87.4224C242.626 84.7059 243.21 83.5711 245.18 81.9192C246.922 80.4582 249.064 80.0292 250.792 81.4135C252.836 80.5361 255.111 80.3372 257.278 80.8462C259.446 81.3552 261.39 82.5451 262.822 84.239C264.254 85.9329 265.098 88.0405 265.228 90.2487C265.358 92.457 264.768 94.6481 263.545 96.4965C262.322 98.3449 260.531 99.7521 258.438 100.509C256.346 101.266 254.063 101.332 251.93 100.698C249.796 100.064 247.926 98.763 246.596 96.9887C245.266 95.2144 244.548 93.0613 244.548 90.8492C244.55 90.4608 244.573 90.0727 244.618 89.6869C243.116 89.4774 242.6 87.632 241.098 87.4224Z" fill="#2F2E41"/>
<path d="M331.621 247.135H187.384C187.284 247.135 187.188 247.095 187.117 247.025C187.046 246.954 187.006 246.859 187.006 246.759C187.006 246.659 187.046 246.563 187.117 246.493C187.188 246.422 187.284 246.383 187.384 246.383H331.621C331.722 246.383 331.818 246.422 331.889 246.493C331.96 246.563 332 246.659 332 246.759C332 246.859 331.96 246.954 331.889 247.025C331.818 247.095 331.722 247.135 331.621 247.135Z" fill="#3F3D56"/>
</g>
<defs>
<clipPath id="clip0_1184_18223">
<rect width="332" height="247.135" fill="white"/>
</clipPath>
</defs>
</svg>
