<svg width="205" height="180" viewBox="0 0 205 180" fill="none" xmlns="http://www.w3.org/2000/svg">
<g clip-path="url(#clip0_1142_17530)">
<path d="M107.837 96.4685C108.079 96.0944 108.397 95.7757 108.771 95.5331C109.145 95.2906 109.565 95.1298 110.006 95.0612C110.446 94.9926 110.895 95.0177 111.325 95.135C111.755 95.2523 112.155 95.4591 112.499 95.7419C112.608 95.8318 112.71 95.9293 112.805 96.0336L125.234 94.2242L125.925 84.8783C125.978 84.1613 126.314 83.4947 126.858 83.0252C127.403 82.5556 128.111 82.3216 128.828 82.3746C129.545 82.4275 130.212 82.7631 130.682 83.3076C131.151 83.852 131.385 84.5607 131.332 85.2777C131.331 85.2943 131.33 85.3109 131.328 85.3275L130.116 98.4416L130.111 98.4708C129.953 98.9749 129.637 99.4147 129.21 99.725C128.782 100.035 128.266 100.2 127.738 100.193L113.119 99.9409C113.063 100.028 113.001 100.111 112.936 100.191C112.653 100.536 112.301 100.816 111.902 101.015C111.503 101.213 111.067 101.325 110.622 101.344C110.177 101.362 109.733 101.286 109.319 101.12C108.905 100.955 108.531 100.704 108.221 100.384C108.158 100.32 108.099 100.253 108.042 100.185C107.621 99.6657 107.374 99.0271 107.338 98.3598C107.301 97.6924 107.476 97.0305 107.837 96.4685Z" fill="#FEDADA"/>
<path d="M132.894 176.153L129.349 176.153L127.663 162.48L132.894 162.481L132.894 176.153Z" fill="#FEDADA"/>
<path d="M133.798 179.59L122.369 179.589V179.445C122.369 178.265 122.837 177.133 123.672 176.299C124.506 175.465 125.638 174.996 126.817 174.996H126.818L133.799 174.996L133.798 179.59Z" fill="#2F2E41"/>
<path d="M157.664 172.941L154.309 174.085L148.298 161.689L153.25 160L157.664 172.941Z" fill="#FEDADA"/>
<path d="M159.63 175.898L148.812 179.588L148.765 179.451C148.384 178.334 148.462 177.112 148.983 176.053C149.503 174.994 150.423 174.185 151.539 173.804L151.54 173.804L158.147 171.551L159.63 175.898Z" fill="#2F2E41"/>
<path d="M136.797 56.6032C136.797 56.6032 133.269 55.438 131.001 60.0988C128.733 64.7596 125.205 69.8864 125.205 69.8864L127.221 70.3525C127.221 70.3525 127.725 67.0899 128.985 66.6239L128.481 70.8186C128.481 70.8186 143.602 75.7124 150.406 70.3525L150.154 68.7212C150.154 68.7212 151.162 68.9543 151.162 70.3525L151.918 69.6534C151.918 69.6534 151.162 68.2552 148.894 66.3908C147.405 65.1672 146.894 62.8392 146.718 61.3837C146.578 60.1514 146.05 58.9956 145.209 58.084C143.702 56.4687 140.955 54.7518 136.797 56.6032Z" fill="#2F2E41"/>
<path d="M138.098 72.888C141.657 72.888 144.542 70.003 144.542 66.444C144.542 62.8851 141.657 60 138.098 60C134.539 60 131.654 62.8851 131.654 66.444C131.654 70.003 134.539 72.888 138.098 72.888Z" fill="#FEDADA"/>
<path d="M129.507 78.1952L128.335 77.8047C128.335 77.8047 125.992 78.7811 125.992 80.5385C125.992 82.296 125.601 89.3258 125.601 89.3258L130.873 89.9116L129.507 78.1952Z" fill="#F6AD55"/>
<path d="M150.476 116.603C149.99 116.058 149.716 115.357 149.703 114.627C149.691 113.898 149.94 113.188 150.407 112.626L147.118 85.0808C147.085 84.4313 147.312 83.7955 147.748 83.3129C148.184 82.8304 148.794 82.5406 149.444 82.5072C150.093 82.4737 150.729 82.6993 151.213 83.1344C151.696 83.5696 151.987 84.1787 152.022 84.8281C152.022 84.8371 152.023 84.8461 152.023 84.8551L154.965 112.43C155.072 112.537 155.17 112.652 155.26 112.774C155.496 113.101 155.665 113.47 155.758 113.862C155.851 114.254 155.866 114.66 155.802 115.058C155.739 115.456 155.597 115.837 155.386 116.18C155.175 116.523 154.898 116.821 154.572 117.057C154.538 117.081 154.503 117.105 154.469 117.128C154.091 117.378 153.662 117.541 153.214 117.606C152.765 117.671 152.308 117.636 151.875 117.503C151.334 117.339 150.85 117.027 150.476 116.603Z" fill="#FEDADA"/>
<path d="M147.464 89.3257L152.736 88.7399C152.736 88.7399 152.346 81.71 152.346 79.9526C152.346 78.1951 150.003 77.2188 150.003 77.2188L148.831 77.6093L147.464 89.3257Z" fill="#F6AD55"/>
<path d="M130.287 99.0777C130.287 99.0777 125.795 107.289 125.795 117.248C125.795 127.207 125.405 172.901 125.405 172.901C125.405 172.901 131.263 175.635 134.778 172.315L137.902 121.739L150.205 171.339C150.205 171.339 156.063 172.51 158.797 170.558L153.524 135.994C153.524 135.994 151.376 103.579 145.518 101.236C139.66 98.8924 130.287 99.0777 130.287 99.0777Z" fill="#2F2E41"/>
<path d="M131.135 66.4838C133.416 64.8328 135.262 62.9313 136.484 60.6693C136.484 60.6693 140.67 65.3209 143.229 65.5535C145.787 65.7861 143.461 59.9715 143.461 59.9715L138.81 58.8086L134.391 59.2738L130.902 61.5996L131.135 66.4838Z" fill="#2F2E41"/>
<path d="M144.542 76.046C144.542 76.046 144.728 75.9462 133.607 76.3513L128.953 77.6331L128.334 77.8035C128.334 77.8035 128.92 89.5199 130.482 91.6679C132.045 93.8159 131.654 94.9876 131.263 95.1828C130.873 95.3781 129.897 94.9876 130.482 95.9639C131.068 96.9403 131.849 96.3545 131.068 96.9403C130.287 97.5261 129.897 99.6741 129.897 99.6741L147.081 102.017C147.081 102.017 147.666 94.4017 149.229 90.4963C150.791 86.5908 151.181 85.0286 151.181 85.0286L150.01 77.2177L144.542 76.046Z" fill="#F6AD55"/>
<path d="M111.872 42.7384H110.883V15.6678C110.883 11.5124 109.233 7.52728 106.294 4.589C103.356 1.65072 99.371 6.69826e-06 95.2157 0L37.8628 0C33.7074 -1.13869e-05 29.7222 1.65068 26.784 4.58895C23.8457 7.52722 22.195 11.5124 22.1949 15.6677V164.18C22.1949 168.335 23.8456 172.32 26.7839 175.258C29.7222 178.197 33.7073 179.847 37.8627 179.847H95.2156C97.2731 179.847 99.3105 179.442 101.211 178.655C103.112 177.867 104.84 176.713 106.294 175.258C107.749 173.804 108.903 172.076 109.691 170.175C110.478 168.275 110.883 166.237 110.883 164.18V62.0078H111.872L111.872 42.7384Z" fill="#3F3D56"/>
<path d="M107.549 15.7791V164.072C107.551 165.608 107.25 167.128 106.663 168.547C106.077 169.966 105.217 171.255 104.133 172.342C103.048 173.428 101.76 174.291 100.342 174.88C98.9243 175.468 97.4044 175.772 95.8691 175.773H38.22C35.1189 175.776 32.1439 174.546 29.9496 172.355C27.7552 170.163 26.5212 167.19 26.519 164.089V15.7791C26.518 14.2436 26.8193 12.7229 27.4059 11.3038C27.9926 9.8848 28.8529 8.5952 29.9379 7.50867C31.0229 6.42214 32.3113 5.55995 33.7295 4.97134C35.1477 4.38272 36.668 4.07921 38.2035 4.07813H45.2107C44.8665 4.92218 44.7351 5.83794 44.8281 6.74474C44.9211 7.65154 45.2358 8.52154 45.7443 9.27808C46.2528 10.0346 46.9396 10.6545 47.7441 11.083C48.5487 11.5116 49.4463 11.7357 50.3578 11.7356H83.2154C84.1269 11.7357 85.0245 11.5116 85.8291 11.083C86.6336 10.6545 87.3204 10.0346 87.8289 9.27808C88.3374 8.52154 88.6521 7.65154 88.7451 6.74474C88.8382 5.83794 88.7068 4.92218 88.3625 4.07813H95.8483C98.9488 4.07535 101.923 5.30435 104.118 7.49476C106.312 9.68518 107.546 12.6576 107.549 15.7581L107.549 15.7791Z" fill="white"/>
<path d="M107.549 37.7187V32.6675H99.9043V4.80047C98.6058 4.32094 97.2324 4.07635 95.8482 4.07813H94.8531V32.6675H68.3347V11.7357H63.2836V32.6675H41.0587V4.07816H38.22C37.4775 4.077 36.7366 4.1472 36.0075 4.28778V32.6675H26.519V37.7187H36.0075V49.402L26.5192 54.8799V60.714L36.0075 55.2361V89.9978H26.519V95.0489H36.0075V145.308H26.519V150.359H36.0075V175.564C36.7366 175.704 37.4775 175.775 38.22 175.773H41.0587V150.359H63.2836V175.773H68.3347V150.359H94.8531V175.773H95.8482C97.2324 175.775 98.6058 175.531 99.9043 175.051V150.359H107.549V145.308H99.9043V123.335H107.481V118.284H99.9043V95.0489H107.549V89.9978H99.9043V59.1859H107.549V54.1348H99.9043V37.7187L107.549 37.7187ZM56.2451 37.7187L41.0588 46.4875L41.0587 37.7187H56.2451ZM41.0587 52.3191L63.2836 39.4867V89.9978H41.0587V52.3191ZM41.0587 145.308V95.0489H63.2836V145.308H41.0587ZM94.8531 145.308H68.3347V123.335H94.8531V145.308ZM94.8531 118.284H68.3347V95.0489H94.8531V118.284ZM94.8531 89.9978H68.3347V59.1859H94.8531V89.9978ZM94.8531 54.1348H68.3347V37.7187H94.8531V54.1348Z" fill="#E5E5E5"/>
<path d="M111.774 54.2276C111.774 70.2681 82.7302 106.002 82.7302 106.002C82.7302 106.002 53.6863 70.2681 53.6863 54.2276C53.6863 46.5246 56.7463 39.1372 62.1931 33.6904C67.6399 28.2436 75.0273 25.1836 82.7302 25.1836C90.4332 25.1836 97.8206 28.2436 103.267 33.6904C108.714 39.1372 111.774 46.5246 111.774 54.2276Z" fill="#1565C0"/>
<path d="M99.9047 52.9629C99.9047 56.3595 98.8974 59.6799 97.0103 62.5041C95.1233 65.3284 92.4411 67.5296 89.303 68.8294C86.1649 70.1293 82.7118 70.4694 79.3804 69.8067C76.049 69.1441 72.9889 67.5084 70.5871 65.1066C68.1853 62.7048 66.5497 59.6447 65.887 56.3133C65.2244 52.9819 65.5644 49.5289 66.8643 46.3907C68.1641 43.2526 70.3653 40.5705 73.1896 38.6834C76.0138 36.7963 79.3342 35.7891 82.7308 35.7891C84.9851 35.788 87.2175 36.231 89.3006 37.0927C91.3836 37.9544 93.2766 39.218 94.8713 40.8113C96.466 42.4045 97.7313 44.2963 98.595 46.3786C99.4586 48.4609 99.9036 50.6929 99.9047 52.9471V52.9629Z" fill="white"/>
<path d="M82.671 59.7415C86.2046 59.7415 89.0691 56.877 89.0691 53.3434C89.0691 49.8098 86.2046 46.9453 82.671 46.9453C79.1375 46.9453 76.2729 49.8098 76.2729 53.3434C76.2729 56.877 79.1375 59.7415 82.671 59.7415Z" fill="#1565C0"/>
<path d="M91.9567 67.9599C89.1986 69.7137 85.9977 70.645 82.7292 70.6446C79.4607 70.6441 76.2601 69.712 73.5024 67.9574C74.0759 65.9526 75.2868 64.1892 76.9518 62.9339C78.6168 61.6786 80.6453 60.9997 82.7305 61C84.8157 61.0003 86.8441 61.6797 88.5087 62.9355C90.1734 64.1912 91.3837 65.955 91.9567 67.9599Z" fill="#1565C0"/>
<path d="M82.7302 126.963C87.0542 126.963 90.5595 123.458 90.5595 119.134C90.5595 114.81 87.0542 111.305 82.7302 111.305C78.4063 111.305 74.901 114.81 74.901 119.134C74.901 123.458 78.4063 126.963 82.7302 126.963Z" fill="#1565C0"/>
<path d="M203.861 180.001H0.805779C0.738797 180.001 0.674558 179.975 0.627195 179.927C0.579831 179.88 0.553223 179.816 0.553223 179.749C0.553223 179.682 0.579831 179.617 0.627195 179.57C0.674558 179.523 0.738797 179.496 0.805779 179.496H203.861C203.928 179.496 203.992 179.523 204.04 179.57C204.087 179.617 204.114 179.682 204.114 179.749C204.114 179.816 204.087 179.88 204.04 179.927C203.992 179.975 203.928 180.001 203.861 180.001Z" fill="#CBCBCB"/>
</g>
<defs>
<clipPath id="clip0_1142_17530">
<rect width="203.56" height="180" fill="white" transform="translate(0.553223)"/>
</clipPath>
</defs>
</svg>
