<svg width="300" height="200" viewBox="0 0 300 200" fill="none" xmlns="http://www.w3.org/2000/svg">
<g clip-path="url(#clip0_570_10329)">
<path d="M159.308 69.415C159.467 69.5781 159.612 69.7534 159.743 69.9393L180.116 69.4407L182.493 65.0977L189.516 67.8279L186.056 75.9254C185.776 76.5796 185.292 77.1255 184.676 77.481C184.06 77.8366 183.345 77.9826 182.639 77.8973L159.621 75.1167C159.078 75.8041 158.338 76.3099 157.501 76.5668C156.663 76.8237 155.768 76.8196 154.933 76.5549C154.098 76.2903 153.363 75.7778 152.826 75.0854C152.29 74.3931 151.977 73.5537 151.929 72.6791C151.881 71.8044 152.1 70.9359 152.558 70.189C153.016 69.4421 153.69 68.8523 154.491 68.498C155.292 68.1436 156.182 68.0416 157.042 68.2054C157.903 68.3692 158.693 68.7911 159.308 69.415Z" fill="#FFB7B7"/>
<path d="M225.722 193.144H219.023L215.836 167.305L225.723 167.305L225.722 193.144Z" fill="#FFB7B7"/>
<path d="M227.43 199.638L205.83 199.637V199.364C205.831 197.135 206.716 194.996 208.293 193.42C209.87 191.843 212.008 190.957 214.238 190.957H214.238L227.431 190.958L227.43 199.638Z" fill="#2F2E41"/>
<path d="M164.894 192.997L158.734 190.365L165.953 165.352L175.045 169.236L164.894 192.997Z" fill="#FFB7B7"/>
<path d="M163.914 199.638L144.051 191.153L144.158 190.901C145.034 188.851 146.689 187.232 148.758 186.402C150.827 185.571 153.142 185.597 155.192 186.473L155.193 186.473L167.324 191.656L163.914 199.638Z" fill="#2F2E41"/>
<path d="M193.161 75.0159L192.676 82.8658L206.836 84.381L221.652 85.9666L217.291 74.0469L193.161 75.0159Z" fill="#FFB7B7"/>
<path d="M192.231 82.9654L186.73 44.6175L196.264 41.4928L199.065 37.6523L212.692 38.4588L214.693 42.9403L221.959 46.3738L220.842 67.1128L221.657 84.4617L192.231 82.9654Z" fill="#2F2E41"/>
<path d="M188.768 72.689L179.07 68.8088L179.112 68.6362C179.153 68.4623 183.281 51.2135 183.829 48.4418C184.4 45.554 186.486 44.7556 186.574 44.7231L186.639 44.6992L190.477 45.8674L192.163 59.1115L188.768 72.689Z" fill="#2F2E41"/>
<path d="M169.883 188.453L156.974 185.805L177.607 128.87L184.668 109.451C184.668 109.451 189.147 93.88 191.171 87.8545L192.392 79.7695L221.301 82.9694C221.301 82.9694 229.375 94.827 226.922 114.154L228.031 186.798L215.122 187.46L204.309 114.195L185.331 154.358C185.331 154.358 179.349 171.497 175.069 175.212L169.883 188.453Z" fill="#2F2E41"/>
<path d="M209.708 85.6683C209.935 85.6629 210.163 85.6754 210.388 85.7058L223.874 70.4271L222.306 65.7314L229.083 62.4375L232.668 70.4806C232.958 71.1303 233.029 71.8565 232.87 72.5501C232.712 73.2437 232.333 73.8673 231.791 74.3271L214.101 89.3157C214.236 90.1812 214.104 91.0672 213.723 91.856C213.342 92.6448 212.73 93.2989 211.969 93.7313C211.207 94.1637 210.331 94.354 209.459 94.2767C208.586 94.1995 207.758 93.8584 207.084 93.2989C206.41 92.7394 205.922 91.9879 205.686 91.1445C205.449 90.3011 205.475 89.4056 205.76 88.5773C206.045 87.7489 206.575 87.0269 207.28 86.5073C207.986 85.9876 208.832 85.695 209.708 85.6683Z" fill="#FFB7B7"/>
<path d="M222.798 71.9147L217.172 58.6814L219.366 49.4638L221.73 46.4769C221.904 46.4028 222.09 46.3655 222.278 46.3672C222.467 46.369 222.653 46.4098 222.824 46.4871C223.696 46.838 224.439 47.9135 225.031 49.6839L230.304 64.7017L222.798 71.9147Z" fill="#2F2E41"/>
<path d="M193.61 32.7477V22.7711C193.61 19.2255 195.018 15.8251 197.525 13.318C200.032 10.8108 203.433 9.40234 206.978 9.40234C210.524 9.40234 213.924 10.8108 216.432 13.318C218.939 15.8251 220.347 19.2255 220.347 22.7711V32.7477C220.347 33.2239 220.157 33.6803 219.821 34.017C219.484 34.3536 219.027 34.543 218.551 34.5435H195.405C194.929 34.543 194.473 34.3536 194.136 34.017C193.8 33.6803 193.61 33.2239 193.61 32.7477Z" fill="#2F2E41"/>
<path d="M204.231 34.31C209.645 34.31 214.033 29.9217 214.033 24.5085C214.033 19.0953 209.645 14.707 204.231 14.707C198.818 14.707 194.43 19.0953 194.43 24.5085C194.43 29.9217 198.818 34.31 204.231 34.31Z" fill="#FFB7B7"/>
<path d="M190.447 23.5674C190.45 20.7637 191.565 18.0757 193.548 16.0931C195.53 14.1105 198.218 12.9954 201.022 12.9922H203.018C205.821 12.9954 208.509 14.1105 210.492 16.0931C212.475 18.0757 213.59 20.7637 213.593 23.5674V23.767H209.376L207.938 19.7397L207.65 23.767H205.471L204.745 21.735L204.6 23.767H190.447L190.447 23.5674Z" fill="#2F2E41"/>
<path d="M203.267 35.6659C203.069 35.3978 202.951 35.0793 202.926 34.747C202.901 34.4146 202.97 34.0821 203.126 33.7875C205.241 29.7657 208.201 22.3342 204.271 17.7512L203.989 17.4219H215.397V34.5498L205.034 36.3783C204.929 36.3969 204.822 36.4063 204.716 36.4064C204.433 36.4064 204.154 36.3392 203.902 36.2105C203.65 36.0818 203.433 35.8952 203.267 35.6659Z" fill="#2F2E41"/>
<path d="M70.1865 187.5L76.2404 189.663L87.4668 167.341L78.5317 164.148L70.1865 187.5Z" fill="#9F616A"/>
<path d="M66.5448 192.818L69.3486 184.973L81.2712 189.234C83.2848 189.956 84.9298 191.447 85.8451 193.381C86.7605 195.314 86.8716 197.532 86.154 199.547L86.0657 199.794L66.5448 192.818Z" fill="#2F2E41"/>
<path d="M109.554 193.489L115.983 193.489L119.042 168.691L109.553 168.692L109.554 193.489Z" fill="#9F616A"/>
<path d="M107.914 191.391L120.575 191.391H120.576C121.635 191.391 122.685 191.599 123.664 192.005C124.642 192.41 125.532 193.005 126.281 193.754C127.03 194.503 127.625 195.392 128.03 196.371C128.436 197.35 128.645 198.4 128.645 199.459V199.721L107.915 199.722L107.914 191.391Z" fill="#2F2E41"/>
<path d="M94.9022 35.0639L97.6981 29.5391C97.6981 29.5391 108.114 32.1487 109.061 38.1855L94.9022 35.0639Z" fill="#F1F1F1"/>
<path d="M83.3656 98.2325L90.9691 140.663L70.7795 176.368L82.8409 181.088L103.293 146.477L105.915 137.038L107.488 186.332L118.366 186.002L123.353 139.973L115.354 97.1836L83.3656 98.2325Z" fill="#2F2E41"/>
<path d="M97.7992 108.266C86.6289 108.266 79.5367 106.13 79.3778 106.096L79.1206 106.041L84.9388 79.0655L85.2007 54.183C85.2007 43.6387 92.1406 35.8648 93.1036 35.1474C93.2658 34.5073 93.5657 33.9104 93.9824 33.3982C94.3991 32.8861 94.9226 32.4711 95.5163 32.1822C97.8312 31.1319 100.66 32.3922 100.779 32.4465L109.269 35.6298L109.309 35.7476C109.412 36.0492 120.595 72.7619 120.595 72.7619C120.595 72.7619 119.918 104.839 119.682 105.89C119.682 105.89 104.006 108.266 97.7992 108.266Z" fill="#3F3D56"/>
<path d="M106.382 27.7985C112.72 27.7985 117.858 22.6608 117.858 16.3231C117.858 9.98537 112.72 4.84766 106.382 4.84766C100.045 4.84766 94.907 9.98537 94.907 16.3231C94.907 22.6608 100.045 27.7985 106.382 27.7985Z" fill="#9F616A"/>
<path opacity="0.2" d="M93.5875 56.2188L113.664 84.2297L116.628 71.1489L93.5875 56.2188Z" fill="black"/>
<path d="M156.53 75.276C155.966 75.7227 155.31 76.0401 154.61 76.2059C153.909 76.3718 153.181 76.3819 152.476 76.2358C151.771 76.0897 151.106 75.7907 150.529 75.3601C149.952 74.9294 149.477 74.3775 149.136 73.7432L131.856 76.5091L135.6 68.2214L151.436 66.8655C152.539 66.364 153.788 66.2848 154.946 66.6427C156.104 67.0007 157.091 67.7711 157.719 68.8078C158.347 69.8445 158.573 71.0755 158.354 72.2677C158.135 73.4598 157.486 74.5302 156.53 75.276Z" fill="#9F616A"/>
<path d="M136.49 67.7496L142.699 67.1406L144.419 75.802L136.606 75.9401L136.49 67.7496Z" fill="#F1F1F1"/>
<path d="M141.58 78.8209L111.171 76.1132L95.8162 51.694L95.7689 51.4781C95.3331 49.4833 95.6383 47.3982 96.6273 45.6119C97.6164 43.8256 99.2218 42.4603 101.144 41.7709C103.066 41.0816 105.173 41.1153 107.072 41.8658C108.971 42.6162 110.532 44.0321 111.463 45.8492L120.476 63.4307L138.667 66.1804L141.58 78.8209Z" fill="#3F3D56"/>
<path d="M96.6079 26.2867L106.133 26.6286C106.713 26.6494 108.289 20.3837 108.495 19.0839C108.658 18.2377 109.124 17.4797 109.805 16.9516C110.486 16.4235 111.336 16.1613 112.196 16.2141C112.909 16.2814 114.707 14.9494 116.562 13.3721C120.084 10.3777 119.901 4.75366 116.032 2.22334C115.926 2.15418 115.822 2.09104 115.72 2.03391C113.279 0.667737 110.424 0.208976 107.627 0.173978C105.092 0.142267 102.484 0.461396 100.25 1.6615C96.2459 3.81304 94.1146 8.51475 93.9274 13.0569C93.7402 17.599 95.1963 22.0404 96.8487 26.2755" fill="#2F2E41"/>
<path d="M299.438 200.173H0.402145C0.295489 200.173 0.193202 200.121 0.117785 200.027C0.0423684 199.934 0 199.807 0 199.675C0 199.542 0.0423684 199.415 0.117785 199.322C0.193202 199.228 0.295489 199.176 0.402145 199.176H299.598C299.704 199.176 299.807 199.228 299.882 199.322C299.958 199.415 300 199.542 300 199.675C300 199.95 299.66 200.173 299.438 200.173Z" fill="#CBCBCB"/>
</g>
<defs>
<clipPath id="clip0_570_10329">
<rect width="300" height="200" fill="white"/>
</clipPath>
</defs>
</svg>
