<svg width="290" height="280" viewBox="0 0 290 280" fill="none" xmlns="http://www.w3.org/2000/svg">
<g clip-path="url(#clip0_680_15623)">
<path d="M191.904 123.898L82.1366 188.053C81.7524 188.277 81.2951 188.339 80.8649 188.226C80.4348 188.113 80.067 187.835 79.8421 187.451L9.25462 66.678C9.03067 66.2938 8.96825 65.8365 9.08106 65.4064C9.19387 64.9762 9.47269 64.6084 9.85637 64.3835L119.624 0.228497C120.008 0.00454362 120.465 -0.057875 120.895 0.0549344C121.325 0.167744 121.693 0.44657 121.918 0.830242L192.506 121.603C192.73 121.987 192.792 122.445 192.679 122.875C192.566 123.305 192.288 123.673 191.904 123.898Z" fill="white"/>
<path d="M191.904 123.898L82.1366 188.053C81.7524 188.277 81.2951 188.339 80.8649 188.226C80.4348 188.113 80.067 187.835 79.8421 187.451L9.25462 66.678C9.03067 66.2938 8.96825 65.8365 9.08106 65.4064C9.19387 64.9762 9.47269 64.6084 9.85637 64.3835L119.624 0.228497C120.008 0.00454362 120.465 -0.057875 120.895 0.0549344C121.325 0.167744 121.693 0.44657 121.918 0.830242L192.506 121.603C192.73 121.987 192.792 122.445 192.679 122.875C192.566 123.305 192.288 123.673 191.904 123.898ZM10.1949 64.9628C9.96471 65.0977 9.7974 65.3184 9.72972 65.5765C9.66203 65.8346 9.69949 66.109 9.83388 66.3395L80.4214 187.112C80.5563 187.343 80.777 187.51 81.0351 187.578C81.2932 187.645 81.5676 187.608 81.7981 187.473L191.565 123.318C191.796 123.184 191.963 122.963 192.031 122.705C192.098 122.447 192.061 122.172 191.926 121.942L121.339 1.16877C121.204 0.938558 120.983 0.771253 120.725 0.703566C120.467 0.635879 120.193 0.673337 119.962 0.807723L10.1949 64.9628Z" fill="#3F3D56"/>
<path d="M80.7536 76.99L53.529 92.9018C53.1448 93.1257 52.6875 93.1881 52.2574 93.0753C51.8272 92.9625 51.4594 92.6837 51.2345 92.3L35.3227 65.0754C35.0988 64.6912 35.0364 64.2339 35.1492 63.8038C35.262 63.3736 35.5408 63.0058 35.9245 62.7809L63.1491 46.8691C63.5333 46.6452 63.9906 46.5827 64.4207 46.6956C64.8509 46.8084 65.2187 47.0872 65.4436 47.4709L81.3554 74.6955C81.5793 75.0796 81.6417 75.537 81.5289 75.9671C81.4161 76.3973 81.1373 76.7651 80.7536 76.99ZM36.263 63.3602C36.0328 63.4951 35.8655 63.7158 35.7978 63.9739C35.7301 64.232 35.7676 64.5064 35.902 64.7369L51.8138 91.9615C51.9487 92.1917 52.1694 92.359 52.4275 92.4267C52.6856 92.4944 52.96 92.4569 53.1905 92.3225L80.4151 76.4107C80.6453 76.2758 80.8126 76.0551 80.8803 75.797C80.948 75.5389 80.9105 75.2645 80.7761 75.034L64.8643 47.8094C64.7294 47.5792 64.5087 47.4119 64.2506 47.3442C63.9925 47.2765 63.7181 47.314 63.4876 47.4484L36.263 63.3602Z" fill="#F2F2F2"/>
<path d="M74.8805 84.8923L47.6559 100.804C47.3101 101.006 46.8985 101.062 46.5114 100.96C46.1243 100.859 45.7932 100.608 45.5909 100.263L29.679 73.038C29.4775 72.6922 29.4213 72.2806 29.5228 71.8935C29.6244 71.5063 29.8753 71.1753 30.2206 70.9729L57.4452 55.0611C57.791 54.8596 58.2026 54.8034 58.5897 54.9049C58.9768 55.0064 59.3079 55.2574 59.5103 55.6027L75.4221 82.8273C75.6236 83.1731 75.6798 83.5847 75.5783 83.9718C75.4767 84.3589 75.2258 84.69 74.8805 84.8923Z" fill="#F6AD55"/>
<path d="M140.592 64.3598L55.4427 114.126C55.0971 114.329 54.6853 114.385 54.298 114.283C53.9108 114.182 53.5797 113.931 53.3777 113.585C53.1756 113.239 53.1192 112.827 53.2208 112.44C53.3223 112.053 53.5736 111.722 53.9192 111.52L139.069 61.7532C139.24 61.6531 139.429 61.5878 139.625 61.5609C139.822 61.5339 140.021 61.546 140.213 61.5963C140.405 61.6465 140.585 61.7341 140.743 61.854C140.901 61.9738 141.034 62.1236 141.134 62.2947C141.234 62.4659 141.299 62.6551 141.326 62.8515C141.353 63.0479 141.341 63.2477 141.29 63.4394C141.24 63.6312 141.153 63.8111 141.033 63.9691C140.913 64.127 140.763 64.2597 140.592 64.3598Z" fill="#CCCCCC"/>
<path d="M125.276 85.3558L60.69 123.104C60.5189 123.204 60.3297 123.269 60.1333 123.296C59.9369 123.323 59.7371 123.311 59.5453 123.261C59.1581 123.159 58.827 122.908 58.625 122.563C58.423 122.217 58.3665 121.805 58.4681 121.418C58.5696 121.031 58.8209 120.7 59.1666 120.497L123.753 82.7492C123.924 82.6492 124.113 82.5839 124.309 82.557C124.506 82.53 124.706 82.5421 124.897 82.5923C125.089 82.6426 125.269 82.7302 125.427 82.85C125.585 82.9699 125.718 83.1197 125.818 83.2908C125.918 83.462 125.983 83.6512 126.01 83.8476C126.037 84.044 126.025 84.2437 125.975 84.4355C125.924 84.6273 125.837 84.8072 125.717 84.9651C125.597 85.1231 125.447 85.2558 125.276 85.3558Z" fill="#CCCCCC"/>
<path d="M121.005 31.5121L83.3538 53.5178C83.0082 53.7198 82.5964 53.7763 82.2092 53.6747C81.8219 53.5731 81.4908 53.3219 81.2888 52.9762C81.0868 52.6306 81.0303 52.2188 81.1319 51.8316C81.2335 51.4443 81.4847 51.1132 81.8304 50.9112L119.481 28.9055C119.827 28.7035 120.239 28.647 120.626 28.7486C120.818 28.7989 120.998 28.8865 121.156 29.0063C121.314 29.1261 121.446 29.2759 121.546 29.4471C121.646 29.6182 121.712 29.8074 121.739 30.0038C121.766 30.2002 121.754 30.4 121.703 30.5918C121.653 30.7835 121.565 30.9635 121.446 31.1214C121.326 31.2793 121.176 31.4121 121.005 31.5121Z" fill="#CCCCCC"/>
<path d="M116.856 45.9809L88.6014 62.4947C88.4303 62.5947 88.2411 62.6601 88.0447 62.687C87.8483 62.7139 87.6485 62.7019 87.4567 62.6516C87.265 62.6013 87.085 62.5137 86.9271 62.3939C86.7692 62.274 86.6364 62.1243 86.5364 61.9531C86.4363 61.782 86.371 61.5928 86.3441 61.3964C86.3171 61.2 86.3292 61.0002 86.3795 60.8084C86.4297 60.6167 86.5173 60.4367 86.6372 60.2788C86.757 60.1209 86.9068 59.9881 87.0779 59.8881L115.333 43.3743C115.678 43.1722 116.09 43.1158 116.477 43.2174C116.864 43.3189 117.196 43.5702 117.398 43.9158C117.6 44.2615 117.656 44.6732 117.554 45.0605C117.453 45.4478 117.202 45.7788 116.856 45.9809Z" fill="#CCCCCC"/>
<path d="M151.087 82.3168L65.9376 132.084C65.5919 132.286 65.1802 132.342 64.7929 132.24C64.4056 132.139 64.0746 131.888 63.8725 131.542C63.6705 131.196 63.6141 130.785 63.7156 130.397C63.8172 130.01 64.0685 129.679 64.4141 129.477L149.563 79.7102C149.909 79.5082 150.321 79.4517 150.708 79.5533C151.095 79.6549 151.426 79.9061 151.628 80.2518C151.83 80.5974 151.887 81.0092 151.785 81.3964C151.684 81.7837 151.433 82.1148 151.087 82.3168Z" fill="#CCCCCC"/>
<path d="M135.771 103.313L71.1851 141.061C71.014 141.161 70.8248 141.226 70.6284 141.253C70.432 141.28 70.2322 141.268 70.0405 141.218C69.8487 141.168 69.6687 141.08 69.5108 140.96C69.3529 140.84 69.2201 140.691 69.1201 140.52C69.0201 140.348 68.9547 140.159 68.9278 139.963C68.9009 139.766 68.9129 139.567 68.9632 139.375C69.0135 139.183 69.1011 139.003 69.2209 138.845C69.3407 138.687 69.4905 138.555 69.6617 138.455L134.248 100.706C134.419 100.606 134.608 100.541 134.804 100.514C135.001 100.487 135.201 100.499 135.392 100.549C135.584 100.6 135.764 100.687 135.922 100.807C136.08 100.927 136.213 101.077 136.313 101.248C136.413 101.419 136.478 101.608 136.505 101.805C136.532 102.001 136.52 102.201 136.47 102.393C136.419 102.584 136.332 102.764 136.212 102.922C136.092 103.08 135.942 103.213 135.771 103.313Z" fill="#CCCCCC"/>
<path d="M161.582 100.274L76.4327 150.041C76.2616 150.141 76.0724 150.206 75.876 150.233C75.6796 150.26 75.4798 150.248 75.288 150.197C75.0963 150.147 74.9163 150.06 74.7584 149.94C74.6005 149.82 74.4677 149.67 74.3677 149.499C74.2676 149.328 74.2023 149.139 74.1754 148.942C74.1484 148.746 74.1605 148.546 74.2108 148.354C74.261 148.163 74.3486 147.983 74.4685 147.825C74.5883 147.667 74.7381 147.534 74.9092 147.434L160.059 97.6672C160.23 97.5672 160.419 97.5018 160.615 97.4749C160.812 97.448 161.011 97.46 161.203 97.5103C161.395 97.5606 161.575 97.6482 161.733 97.768C161.891 97.8879 162.024 98.0376 162.124 98.2088C162.224 98.3799 162.289 98.5691 162.316 98.7655C162.343 98.9619 162.331 99.1617 162.28 99.3535C162.23 99.5452 162.143 99.7252 162.023 99.8831C161.903 100.041 161.753 100.174 161.582 100.274Z" fill="#CCCCCC"/>
<path d="M166.829 109.25L81.68 159.017C81.5089 159.117 81.3197 159.182 81.1233 159.209C80.9269 159.236 80.7271 159.224 80.5353 159.174C80.3436 159.124 80.1636 159.036 80.0057 158.916C79.8478 158.796 79.715 158.647 79.615 158.476C79.5149 158.304 79.4496 158.115 79.4227 157.919C79.3958 157.722 79.4078 157.523 79.4581 157.331C79.5084 157.139 79.5959 156.959 79.7158 156.801C79.8356 156.643 79.9854 156.511 80.1565 156.41L165.306 106.644C165.477 106.544 165.666 106.478 165.863 106.451C166.059 106.425 166.259 106.437 166.45 106.487C166.642 106.537 166.822 106.625 166.98 106.745C167.138 106.864 167.271 107.014 167.371 107.185C167.471 107.356 167.536 107.546 167.563 107.742C167.59 107.938 167.578 108.138 167.528 108.33C167.477 108.522 167.39 108.702 167.27 108.86C167.15 109.018 167 109.15 166.829 109.25Z" fill="#CCCCCC"/>
<path d="M139.294 144.202C140.477 142.809 141.542 141.319 142.477 139.749C143.316 138.333 144.14 136.819 144.325 135.157C144.419 134.45 144.345 133.73 144.109 133.057C143.874 132.383 143.482 131.775 142.967 131.281C142.468 130.822 141.837 130.534 141.164 130.457C140.491 130.381 139.811 130.52 139.222 130.856C138.627 131.198 138.135 131.694 137.798 132.293C137.462 132.891 137.294 133.57 137.311 134.256C137.36 135.012 137.578 135.747 137.95 136.407C138.322 137.066 138.838 137.633 139.46 138.066C141.977 139.889 145.908 139.794 148.59 138.406C151.612 136.843 153.173 132.754 150.799 129.955C150.305 129.372 149.484 130.023 149.607 130.651C149.764 131.499 150.239 132.256 150.935 132.766C151.631 133.276 152.495 133.501 153.351 133.395C154.207 133.289 154.991 132.861 155.542 132.197C156.092 131.533 156.369 130.683 156.314 129.822L155.247 130.446C156.555 131.025 157.993 131.25 159.416 131.098C160.839 130.945 162.196 130.42 163.352 129.576C163.923 129.161 164.434 128.668 164.868 128.111C165.391 127.429 166.268 126.989 166.979 126.498L172.099 122.96C172.852 122.44 172.136 121.2 171.376 121.724L166.739 124.928C165.967 125.462 165.189 125.99 164.421 126.53C163.872 126.917 163.534 127.541 163.035 128C162.089 128.851 160.92 129.415 159.666 129.627C158.412 129.84 157.123 129.691 155.95 129.198C155.84 129.14 155.718 129.11 155.594 129.112C155.47 129.114 155.348 129.148 155.241 129.211C155.134 129.274 155.045 129.363 154.982 129.47C154.919 129.577 154.885 129.698 154.883 129.822C154.939 130.336 154.79 130.851 154.469 131.256C154.147 131.66 153.679 131.922 153.165 131.982C152.652 132.043 152.136 131.899 151.728 131.58C151.321 131.262 151.056 130.796 150.991 130.283L149.799 130.98C151.331 132.785 150.311 135.555 148.547 136.767C146.574 138.122 143.658 138.357 141.434 137.515C140.889 137.327 140.388 137.029 139.963 136.639C139.538 136.249 139.198 135.775 138.964 135.248C138.747 134.771 138.685 134.239 138.787 133.725C138.889 133.212 139.149 132.743 139.531 132.386C139.862 132.059 140.308 131.873 140.773 131.868C141.239 131.863 141.688 132.039 142.026 132.359C142.394 132.735 142.664 133.196 142.813 133.701C142.961 134.206 142.983 134.739 142.876 135.255C142.647 136.689 141.854 138.011 141.117 139.236C140.275 140.632 139.322 141.958 138.269 143.202C137.678 143.901 138.697 144.908 139.294 144.202Z" fill="#F6AD55"/>
<path d="M152.002 178.239C152.126 178.366 152.239 178.502 152.341 178.647L168.197 178.259L170.047 174.879L175.513 177.004L172.82 183.306C172.602 183.815 172.225 184.24 171.746 184.516C171.266 184.793 170.71 184.907 170.16 184.841L152.246 182.676C151.823 183.211 151.248 183.605 150.596 183.805C149.944 184.005 149.247 184.002 148.597 183.796C147.947 183.59 147.375 183.191 146.958 182.652C146.54 182.113 146.297 181.46 146.259 180.779C146.222 180.099 146.393 179.423 146.749 178.841C147.105 178.26 147.63 177.801 148.253 177.525C148.877 177.25 149.569 177.17 150.239 177.298C150.909 177.425 151.524 177.753 152.002 178.239Z" fill="#FEDADA"/>
<path d="M203.691 274.532H198.477L195.997 254.422L203.691 254.422L203.691 274.532Z" fill="#FEDADA"/>
<path d="M205.02 279.584L188.209 279.584V279.371C188.21 277.636 188.899 275.972 190.126 274.745C191.353 273.518 193.017 272.828 194.753 272.828H194.753L205.02 272.829L205.02 279.584Z" fill="#2F2E41"/>
<path d="M156.35 274.418L151.555 272.37L157.174 252.902L164.25 255.925L156.35 274.418Z" fill="#FEDADA"/>
<path d="M155.587 279.585L140.128 272.981L140.212 272.785C140.893 271.189 142.181 269.93 143.792 269.283C145.402 268.637 147.203 268.657 148.799 269.338L148.8 269.339L158.241 273.372L155.587 279.585Z" fill="#2F2E41"/>
<path d="M178.349 182.594L177.972 188.703L188.992 189.883L200.523 191.117L197.129 181.84L178.349 182.594Z" fill="#FFB7B7"/>
<path d="M177.625 188.781L173.344 158.936L180.764 156.505L182.944 153.516L193.55 154.143L195.107 157.631L200.762 160.303L199.893 176.444L200.527 189.946L177.625 188.781Z" fill="#2F2E41"/>
<path d="M174.931 180.784L167.383 177.764L167.415 177.629C167.447 177.494 170.66 164.07 171.086 161.913C171.531 159.665 173.154 159.044 173.223 159.019L173.273 159L176.26 159.909L177.572 170.217L174.931 180.784Z" fill="#2F2E41"/>
<path d="M160.233 270.882L150.186 268.821L166.244 224.51L171.74 209.397C171.74 209.397 175.225 197.279 176.8 192.589L177.751 186.297L200.25 188.787C200.25 188.787 206.533 198.016 204.624 213.057L205.488 269.594L195.441 270.109L187.025 213.089L172.255 244.347C172.255 244.347 167.6 257.686 164.269 260.577L160.233 270.882Z" fill="#2F2E41"/>
<path d="M191.227 190.885C191.404 190.88 191.581 190.89 191.756 190.914L202.252 179.023L201.032 175.368L206.306 172.805L209.096 179.064C209.322 179.57 209.377 180.135 209.254 180.675C209.131 181.215 208.836 181.7 208.413 182.058L194.646 193.723C194.751 194.397 194.649 195.086 194.352 195.7C194.056 196.314 193.579 196.823 192.987 197.16C192.394 197.496 191.712 197.644 191.033 197.584C190.354 197.524 189.71 197.259 189.185 196.823C188.66 196.388 188.281 195.803 188.097 195.147C187.913 194.49 187.933 193.793 188.155 193.148C188.376 192.504 188.789 191.942 189.338 191.537C189.887 191.133 190.546 190.905 191.227 190.885Z" fill="#FEDADA"/>
<path d="M201.415 180.18L197.036 169.881L198.744 162.707L200.584 160.382C200.719 160.325 200.864 160.296 201.01 160.297C201.157 160.298 201.302 160.33 201.435 160.39C202.114 160.663 202.692 161.5 203.153 162.878L207.256 174.566L201.415 180.18Z" fill="#2F2E41"/>
<path d="M178.698 149.7V141.936C178.698 139.176 179.795 136.53 181.746 134.579C183.697 132.627 186.344 131.531 189.103 131.531C191.862 131.531 194.509 132.627 196.46 134.579C198.411 136.53 199.507 139.176 199.507 141.936V149.7C199.507 150.071 199.36 150.426 199.098 150.688C198.836 150.95 198.48 151.097 198.11 151.098H180.096C179.726 151.097 179.37 150.95 179.108 150.688C178.846 150.426 178.699 150.071 178.698 149.7Z" fill="#2F2E41"/>
<path d="M186.965 150.917C191.178 150.917 194.593 147.501 194.593 143.288C194.593 139.075 191.178 135.66 186.965 135.66C182.752 135.66 179.337 139.075 179.337 143.288C179.337 147.501 182.752 150.917 186.965 150.917Z" fill="#FEDADA"/>
<path d="M176.237 142.555C176.239 140.373 177.107 138.281 178.65 136.738C180.193 135.195 182.285 134.327 184.467 134.324H186.02C188.202 134.327 190.294 135.195 191.837 136.738C193.38 138.281 194.248 140.373 194.251 142.555V142.71H190.969L189.849 139.576L189.626 142.71H187.929L187.365 141.128L187.252 142.71H176.237L176.237 142.555Z" fill="#2F2E41"/>
<path d="M186.214 151.968C186.06 151.76 185.968 151.512 185.949 151.253C185.929 150.995 185.983 150.736 186.105 150.506C187.75 147.376 190.054 141.593 186.996 138.026L186.776 137.77H195.655V151.1L187.589 152.523C187.508 152.537 187.425 152.545 187.342 152.545C187.122 152.545 186.905 152.492 186.709 152.392C186.513 152.292 186.343 152.147 186.214 151.968Z" fill="#2F2E41"/>
<path d="M82.6418 270.138L87.3534 271.822L96.0906 254.45L89.1366 251.965L82.6418 270.138Z" fill="#9F616A"/>
<path d="M79.8076 274.278L81.9897 268.172L91.2687 271.488C92.8359 272.05 94.1161 273.211 94.8285 274.716C95.5409 276.221 95.6274 277.946 95.0689 279.515L95.0002 279.707L79.8076 274.278Z" fill="#2F2E41"/>
<path d="M113.281 274.8L118.284 274.799L120.665 255.5L113.28 255.5L113.281 274.8Z" fill="#9F616A"/>
<path d="M112.004 273.164L121.858 273.164H121.858C122.683 273.164 123.499 273.326 124.261 273.642C125.023 273.958 125.716 274.42 126.299 275.003C126.882 275.586 127.344 276.279 127.66 277.04C127.976 277.802 128.138 278.619 128.138 279.444V279.648L112.004 279.648L112.004 273.164Z" fill="#2F2E41"/>
<path d="M101.877 151.499L104.053 147.199C104.053 147.199 112.16 149.23 112.897 153.928L101.877 151.499Z" fill="#F1F1F1"/>
<path d="M92.8989 200.664L98.8164 233.687L83.1035 261.475L92.4905 265.148L108.408 238.212L110.448 230.865L111.672 269.229L120.138 268.972L124.02 233.149L117.794 199.848L92.8989 200.664Z" fill="#2F2E41"/>
<path d="M104.132 208.472C95.4385 208.472 89.9188 206.809 89.7951 206.782L89.595 206.74L94.1231 185.746L94.327 166.38C94.327 158.174 99.7281 152.124 100.478 151.565C100.604 151.067 100.837 150.603 101.161 150.204C101.486 149.806 101.893 149.483 102.355 149.258C104.157 148.44 106.358 149.421 106.451 149.463L113.059 151.941L113.09 152.033C113.17 152.267 121.873 180.84 121.873 180.84C121.873 180.84 121.346 205.805 121.163 206.622C121.163 206.622 108.962 208.472 104.132 208.472Z" fill="#3F3D56"/>
<path d="M110.812 145.846C115.745 145.846 119.743 141.848 119.743 136.915C119.743 131.983 115.745 127.984 110.812 127.984C105.88 127.984 101.881 131.983 101.881 136.915C101.881 141.848 105.88 145.846 110.812 145.846Z" fill="#9F616A"/>
<path opacity="0.2" d="M100.854 167.965L116.479 189.765L118.786 179.585L100.854 167.965Z" fill="black"/>
<path d="M149.841 182.797C149.401 183.145 148.891 183.392 148.346 183.521C147.801 183.65 147.234 183.658 146.685 183.544C146.136 183.43 145.619 183.198 145.17 182.863C144.721 182.527 144.351 182.098 144.086 181.604L130.638 183.757L133.551 177.307L145.876 176.251C146.734 175.861 147.707 175.8 148.608 176.078C149.509 176.357 150.277 176.956 150.766 177.763C151.254 178.57 151.43 179.528 151.26 180.456C151.089 181.384 150.584 182.217 149.841 182.797Z" fill="#9F616A"/>
<path d="M134.244 176.939L139.076 176.465L140.415 183.206L134.334 183.313L134.244 176.939Z" fill="#F1F1F1"/>
<path d="M138.205 185.555L114.539 183.448L102.589 164.443L102.552 164.275C102.213 162.722 102.45 161.1 103.22 159.709C103.99 158.319 105.239 157.257 106.735 156.72C108.231 156.184 109.871 156.21 111.349 156.794C112.826 157.378 114.041 158.48 114.766 159.894L121.781 173.577L135.938 175.717L138.205 185.555Z" fill="#3F3D56"/>
<path d="M103.205 144.672L110.618 144.938C111.069 144.954 112.296 140.078 112.456 139.066C112.583 138.408 112.945 137.818 113.475 137.407C114.005 136.996 114.667 136.792 115.336 136.833C115.891 136.885 117.29 135.849 118.734 134.621C121.476 132.291 121.333 127.914 118.322 125.944C118.239 125.89 118.159 125.841 118.079 125.797C116.18 124.734 113.958 124.377 111.781 124.349C109.807 124.325 107.778 124.573 106.04 125.507C102.923 127.181 101.264 130.841 101.119 134.376C100.973 137.911 102.106 141.367 103.392 144.663" fill="#2F2E41"/>
<path d="M289.028 279.999H0.388165C0.285217 279.999 0.186486 279.958 0.113691 279.885C0.0408955 279.812 0 279.714 0 279.611C0 279.508 0.0408955 279.409 0.113691 279.336C0.186486 279.264 0.285217 279.223 0.388165 279.223H289.183C289.286 279.223 289.384 279.264 289.457 279.336C289.53 279.409 289.571 279.508 289.571 279.611C289.571 279.825 289.243 279.999 289.028 279.999Z" fill="#CBCBCB"/>
</g>
<defs>
<clipPath id="clip0_680_15623">
<rect width="289.571" height="280" fill="white"/>
</clipPath>
</defs>
</svg>
