<svg width="199" height="180" viewBox="0 0 199 180" fill="none" xmlns="http://www.w3.org/2000/svg">
<g clip-path="url(#clip0_1142_17600)">
<path d="M104.839 33.0415H104.127V12.1129C104.127 10.5222 103.835 8.94709 103.268 7.47749C102.701 6.00789 101.87 4.67257 100.822 3.54779C99.7748 2.423 98.5309 1.53077 97.162 0.922043C95.7931 0.313312 94.3259 8.57546e-07 92.8442 0H51.5418C50.0601 -3.43005e-06 48.5929 0.313302 47.2239 0.922028C45.855 1.53075 44.6112 2.42298 43.5634 3.54776C42.5157 4.67254 41.6846 6.00786 41.1176 7.47746C40.5506 8.94706 40.2587 10.5222 40.2587 12.1129V126.929C40.2587 130.141 41.4474 133.222 43.5634 135.494C45.6794 137.765 48.5493 139.042 51.5417 139.042H92.8441C95.8365 139.042 98.7064 137.765 100.822 135.494C102.938 133.222 104.127 130.141 104.127 126.929V47.9388H104.839V33.0415Z" fill="#3F3D56"/>
<path d="M93.2993 3.15235H87.908C88.156 3.80491 88.2506 4.51291 88.1836 5.21398C88.1166 5.91505 87.8901 6.58768 87.5239 7.17262C87.1577 7.75755 86.6632 8.23683 86.0838 8.56824C85.5045 8.89965 84.8581 9.07302 84.2016 9.07307H60.54C59.8835 9.07302 59.2371 8.89965 58.6578 8.56824C58.0784 8.23683 57.5839 7.75755 57.2177 7.17262C56.8515 6.58769 56.625 5.91506 56.558 5.21398C56.491 4.51291 56.5857 3.8049 56.8336 3.15234H51.7981C49.5634 3.15234 47.4201 4.10538 45.84 5.80179C44.2598 7.49819 43.372 9.79902 43.372 12.1981V126.845C43.372 128.033 43.59 129.21 44.0134 130.307C44.4369 131.405 45.0575 132.402 45.8399 133.242C46.6224 134.082 47.5513 134.748 48.5736 135.203C49.5958 135.657 50.6915 135.891 51.7981 135.891H93.2993C94.4059 135.891 95.5016 135.657 96.5239 135.203C97.5462 134.748 98.475 134.082 99.2575 133.242C100.04 132.402 100.661 131.405 101.084 130.307C101.507 129.21 101.725 128.033 101.725 126.845V12.1981C101.725 9.79901 100.838 7.49819 99.2575 5.80179C97.6773 4.10538 95.5341 3.15235 93.2993 3.15235Z" fill="white"/>
<path d="M73.3456 99.0631C70.2895 99.0661 67.2628 98.4222 64.4388 97.1681C61.6148 95.9139 59.0489 94.0743 56.8879 91.7543C54.7269 89.4344 53.0132 86.6798 51.845 83.6481C50.6768 80.6164 50.077 77.3671 50.0798 74.0862C50.0755 69.4792 51.2598 64.961 53.5015 61.0325C55.7432 57.1041 58.9547 53.919 62.7797 51.8304C65.5524 50.316 68.5793 49.4127 71.6822 49.1736C74.7851 48.9345 77.9012 49.3645 80.8469 50.4383C86.0637 52.3468 90.4801 56.1813 93.3096 61.2589C96.139 66.3364 97.1978 72.3273 96.2973 78.1646C95.3968 84.0018 92.5955 89.3064 88.3923 93.1336C84.1891 96.9608 78.857 99.062 73.3456 99.0631ZM73.3456 50.0889C69.816 50.0777 66.3353 50.974 63.1945 52.7027C60.4491 54.2043 58.0226 56.299 56.0671 58.8552C54.1116 61.4114 52.6696 64.374 51.8314 67.557C50.9931 70.74 50.7769 74.0747 51.1963 77.3517C51.6156 80.6286 52.6615 83.7772 54.2682 86.5996C55.8749 89.422 58.0077 91.8574 60.5328 93.7528C63.058 95.6483 65.9208 96.9628 68.9417 97.614C71.9625 98.2651 75.0762 98.2388 78.0871 97.5367C81.098 96.8346 83.9412 95.4719 86.4383 93.534C87.6455 92.5989 88.7619 91.5355 89.7705 90.36C92.7202 86.9337 94.6753 82.6583 95.3963 78.0574C96.1172 73.4566 95.5728 68.7298 93.8297 64.456C92.0866 60.1822 89.2204 56.5468 85.5822 53.995C81.9439 51.4432 77.6915 50.0858 73.3456 50.0889Z" fill="#F0F0F0"/>
<path d="M22.9323 51.9198C23.5709 52.0057 24.1842 52.241 24.7289 52.6089C25.2737 52.9769 25.7367 53.4686 26.0853 54.0494C26.4339 54.6302 26.6597 55.286 26.7467 55.9706C26.8336 56.6552 26.7797 57.352 26.5888 58.0118L34.3188 64.9243L31.5516 70.9918L20.763 61.0655C19.7518 60.6476 18.9184 59.846 18.4209 58.8125C17.9234 57.779 17.7963 56.5856 18.0637 55.4582C18.3311 54.3309 18.9744 53.348 19.8717 52.6959C20.769 52.0437 21.858 51.7676 22.9323 51.9198Z" fill="#FEDADA"/>
<path d="M95.1275 80.7448C94.9724 78.9558 94.3315 75.7396 93.7877 74.5504C92.1159 69.8528 81.3139 65.992 79.8633 65.4943L79.4954 61.1029L64.4866 59.3692L62.5827 64.9849L57.1998 67.1529C56.8343 67.2992 56.5035 67.5305 56.2311 67.8302C55.9588 68.13 55.7515 68.4907 55.6243 68.8866L50.7948 70.3852L46.0292 71.8642L29.4725 59.3398L28.6908 59.8884L23.466 63.5484L22.6599 64.1132L44.0858 84.8652L52.0447 82.8605L58.03 81.3489L58.5409 83.5756L57.218 91.3984C61.0507 95.5145 66.124 98.0299 71.528 98.4937C76.932 98.9574 82.3131 97.339 86.7062 93.9287L90.1062 90.6899C92.476 87.9391 94.2251 84.6404 95.2186 81.0485L95.1275 80.7448Z" fill="#1565C0"/>
<path d="M76.706 55.7785C82.3718 53.7647 85.4441 47.2014 83.5682 41.1189C81.6923 35.0365 75.5787 31.7382 69.9129 33.7521C64.2472 35.7659 61.1749 42.3292 63.0508 48.4117C64.9266 54.4941 71.0403 57.7923 76.706 55.7785Z" fill="#FEDADA"/>
<path d="M64.7743 31.538C65.8248 29.9273 67.4014 28.8 69.1907 28.3799C70.9598 27.9892 72.8011 28.3518 74.3259 29.3911C75.984 28.674 77.7717 28.1983 79.5282 28.4401C81.2846 28.682 83.0061 29.7352 83.8188 31.4704C83.9898 31.9199 84.1972 32.3524 84.4387 32.7629C85.1548 33.7885 86.4854 33.9215 87.6606 33.9708C87.0665 34.3428 86.4723 34.7148 85.8779 35.0868C86.4701 35.383 87.0624 35.6793 87.6547 35.9756C86.8486 36.3059 86.0426 36.6362 85.2366 36.9666C87.1126 38.7369 87.5664 41.8876 86.856 44.5291C86.1835 47.03 84.6416 49.1353 82.9198 50.9377C82.5839 49.5928 82.9534 48.1347 83.1995 46.7423C83.4593 45.2711 83.501 43.5509 82.5414 42.5122C81.8942 41.8115 80.9447 41.5998 80.0494 41.4298C75.5334 40.5724 70.9756 39.9914 66.3982 39.6897C65.7856 39.5988 65.1615 39.6672 64.5787 39.8892C63.4647 40.4206 63.0171 41.88 62.6943 43.174C62.5397 40.9026 62.6632 38.6193 63.0618 36.3824C63.3671 34.6704 63.8482 32.9568 64.7743 31.538Z" fill="#2F2E41"/>
<path d="M78.82 110.83H66.0466C65.603 110.83 65.1775 110.641 64.8639 110.304C64.5502 109.967 64.3739 109.51 64.3739 109.034C64.3739 108.558 64.5502 108.101 64.8639 107.764C65.1775 107.427 65.603 107.238 66.0466 107.238H78.82C79.2636 107.238 79.6891 107.427 80.0027 107.764C80.3164 108.101 80.4927 108.558 80.4927 109.034C80.4927 109.51 80.3164 109.967 80.0027 110.304C79.6891 110.641 79.2636 110.83 78.82 110.83Z" fill="#F6AD55"/>
<path d="M36.9058 14.7331H1.77166C1.4479 14.7326 1.13756 14.5941 0.908809 14.3482C0.680056 14.1022 0.551575 13.7688 0.551575 13.4213C0.551575 13.0737 0.680056 12.7403 0.908809 12.4943C1.13756 12.2484 1.4479 12.1099 1.77166 12.1094H36.9058C37.2299 12.1094 37.5408 12.2476 37.7699 12.4936C37.9991 12.7396 38.1279 13.0733 38.1279 13.4213C38.1279 13.7692 37.9991 14.1029 37.7699 14.3489C37.5408 14.5949 37.2299 14.7331 36.9058 14.7331Z" fill="#F6AD55"/>
<path d="M57.1912 23.1119H1.77164C1.44757 23.1119 1.13676 22.9737 0.907607 22.7277C0.67845 22.4817 0.549713 22.148 0.549713 21.8001C0.549713 21.4522 0.67845 21.1185 0.907607 20.8725C1.13676 20.6265 1.44757 20.4883 1.77164 20.4883H57.1912C57.5153 20.4883 57.8261 20.6265 58.0552 20.8725C58.2844 21.1185 58.4131 21.4522 58.4131 21.8001C58.4131 22.148 58.2844 22.4817 58.0552 22.7277C57.8261 22.9737 57.5153 23.1119 57.1912 23.1119Z" fill="#F6AD55"/>
<path d="M46.5413 31.0064H1.77164C1.44757 31.0064 1.13676 30.8682 0.907607 30.6222C0.67845 30.3762 0.549713 30.0425 0.549713 29.6946C0.549713 29.3467 0.67845 29.013 0.907607 28.767C1.13676 28.521 1.44757 28.3828 1.77164 28.3828H46.5413C46.8654 28.3828 47.1762 28.521 47.4053 28.767C47.6345 29.013 47.7632 29.3467 47.7632 29.6946C47.7632 30.0425 47.6345 30.3762 47.4053 30.6222C47.1762 30.8682 46.8654 31.0064 46.5413 31.0064Z" fill="#CACACA"/>
<path d="M27.0169 38.8697H1.77164C1.44757 38.8697 1.13676 38.7315 0.907607 38.4855C0.67845 38.2395 0.549713 37.9058 0.549713 37.5579C0.549713 37.21 0.67845 36.8763 0.907607 36.6303C1.13676 36.3843 1.44757 36.2461 1.77164 36.2461H27.0169C27.341 36.2461 27.6518 36.3843 27.881 36.6303C28.1101 36.8763 28.2389 37.21 28.2389 37.5579C28.2389 37.9058 28.1101 38.2395 27.881 38.4855C27.6518 38.7315 27.341 38.8697 27.0169 38.8697Z" fill="#CACACA"/>
<path d="M40.963 46.733H1.77163C1.44789 46.7324 1.13759 46.594 0.908852 46.348C0.680112 46.1021 0.551636 45.7687 0.551636 45.4212C0.551636 45.0736 0.680112 44.7403 0.908852 44.4943C1.13759 44.2484 1.44789 44.1099 1.77163 44.1094H40.963C41.2867 44.1099 41.597 44.2484 41.8258 44.4943C42.0545 44.7403 42.183 45.0736 42.183 45.4212C42.183 45.7687 42.0545 46.1021 41.8258 46.348C41.597 46.594 41.2867 46.7324 40.963 46.733Z" fill="#CACACA"/>
<path d="M151.416 175.075L148.267 175.075L146.768 162.035L151.416 162.035L151.416 175.075Z" fill="#9F616A"/>
<path d="M152.654 179.753L140.632 179.753V179.589C140.632 178.257 141.125 176.979 142.003 176.037C142.88 175.095 144.07 174.566 145.311 174.566H145.312L147.508 172.777L151.605 174.566L152.654 174.566L152.654 179.753Z" fill="#2F2E41"/>
<path d="M149.58 113.794L148.192 95.6154L147.1 88.7921L153.209 87.3438L155.236 96.6852L153.47 114.299C153.826 114.767 154.044 115.34 154.095 115.942C154.146 116.545 154.028 117.15 153.756 117.679C153.484 118.209 153.071 118.64 152.57 118.916C152.068 119.192 151.502 119.3 150.942 119.228C150.383 119.155 149.856 118.905 149.431 118.509C149.005 118.112 148.699 117.589 148.553 117.005C148.406 116.42 148.426 115.803 148.609 115.231C148.792 114.659 149.13 114.158 149.58 113.794Z" fill="#9F616A"/>
<path d="M134.688 175.075L131.539 175.075L130.041 162.035L134.689 162.035L134.688 175.075Z" fill="#9F616A"/>
<path d="M129.648 117.912L128.253 120.505C128.253 120.505 126.719 120.955 127.22 126.322C127.721 131.69 127.743 163.494 130.169 167.407L130.608 170.768L135.191 171.238L135.306 168.256L140.77 126.829C140.77 126.829 143.988 167.497 146.65 168.492L147.611 171.881L151.811 171.883L151.563 167.89L151.833 117.492L129.648 117.912Z" fill="#2F2E41"/>
<path d="M128.114 120.308L128.017 120.282C130.899 108.712 130.068 93.7301 128.033 77.6425L128.033 77.5758L135.388 70.3438H141.775L148.106 74.7302C152.199 76.9271 153.129 81.5797 153.138 81.6266L153.145 81.6597L150.637 91.0576L152.526 118.236L152.528 118.268L152.517 118.297C151.906 119.961 150.267 119.724 148.37 119.45C146.476 119.176 139.497 121.682 137.357 121.682C133.175 121.682 128.413 120.391 128.114 120.308Z" fill="#F6AD55"/>
<path d="M146.78 78.3946L149.524 77.1133L153.138 81.8712L156.068 97.1178L146.032 95.4853L146.78 78.3946Z" fill="#F6AD55"/>
<path d="M104.58 106.508L117.122 94.2035L121.481 89.1016L126.286 93.4018L120.645 100.84L106.588 110.119C106.461 110.708 106.173 111.243 105.76 111.655C105.347 112.067 104.83 112.337 104.273 112.431C103.716 112.524 103.146 112.437 102.636 112.18C102.126 111.923 101.699 111.508 101.41 110.989C101.121 110.47 100.984 109.869 101.015 109.266C101.046 108.662 101.245 108.081 101.586 107.6C101.926 107.118 102.394 106.757 102.927 106.562C103.461 106.367 104.036 106.348 104.58 106.508Z" fill="#9F616A"/>
<path d="M116.849 94.3391L120.322 89.4961C120.351 89.4267 123.233 82.5124 125.732 79.5082C128.294 76.4264 130.312 78.0024 130.332 78.0194L130.382 78.06L130.521 89.4405L120.903 101.779L116.849 94.3391Z" fill="#F6AD55"/>
<path d="M143.727 63.5321C144.244 60.1057 142.077 56.8773 138.885 56.3212C135.694 55.7652 132.686 58.0921 132.168 61.5186C131.65 64.945 133.818 68.1734 137.01 68.7294C140.201 69.2855 143.209 66.9586 143.727 63.5321Z" fill="#9F616A"/>
<path d="M132.595 61.5916C132.595 61.5916 132.548 59.382 132.288 58.4043C132.027 57.4266 131.507 56.5886 131.767 56.5886C132.027 56.5886 132.157 55.8902 132.157 55.8902C132.157 55.8902 132.418 55.7505 132.548 55.8902C132.678 56.0299 132.808 54.9125 132.808 54.9125C132.808 54.9125 132.938 54.4935 133.068 54.7728C133.198 55.0522 133.198 54.9125 133.328 54.4935C133.458 54.0744 134.109 53.7951 134.109 53.7951C134.109 53.7951 136.581 53.9348 136.971 53.3761C137.362 52.8174 141.785 53.2364 142.696 53.9348C143.607 54.6331 147.64 57.1472 146.989 59.2423C146.339 61.3374 144.466 66.1613 143.997 66.645C143.255 67.4098 142.741 67.6855 139.23 68.4356C138.543 68.5823 135.035 66.1743 135.035 65.7553C135.035 65.3362 135.458 64.0074 134.779 63.825C133.751 63.5493 133.635 64.9438 133.375 64.5247C133.115 64.1057 132.595 61.5916 132.595 61.5916Z" fill="#2F2E41"/>
<path d="M135.927 179.753L123.904 179.753V179.589C123.904 178.257 124.397 176.979 125.275 176.037C126.152 175.095 127.343 174.566 128.584 174.566H128.584L130.78 172.777L134.877 174.566L135.927 174.566L135.927 179.753Z" fill="#2F2E41"/>
<path d="M198.421 180H1.56124C1.4652 180 1.3731 179.959 1.30519 179.886C1.23728 179.813 1.19913 179.715 1.19913 179.611C1.19913 179.508 1.23728 179.409 1.30519 179.337C1.3731 179.264 1.4652 179.223 1.56124 179.223H198.421C198.517 179.223 198.609 179.264 198.677 179.337C198.745 179.409 198.783 179.508 198.783 179.611C198.783 179.715 198.745 179.813 198.677 179.886C198.609 179.959 198.517 180 198.421 180Z" fill="#CACACA"/>
</g>
<defs>
<clipPath id="clip0_1142_17600">
<rect width="198.234" height="180" fill="white" transform="translate(0.549713)"/>
</clipPath>
</defs>
</svg>
