<svg width="226" height="160" viewBox="0 0 226 160" fill="none" xmlns="http://www.w3.org/2000/svg">
<g clip-path="url(#clip0_1142_17559)">
<path d="M168.25 82.4769H93.0118C92.6424 82.4765 92.2883 82.3295 92.0271 82.0683C91.7659 81.8071 91.619 81.453 91.6185 81.0836V46.8152C91.619 46.4458 91.7659 46.0916 92.0271 45.8304C92.2883 45.5692 92.6424 45.4223 93.0118 45.4219H168.25C168.62 45.4223 168.974 45.5692 169.235 45.8304C169.496 46.0916 169.643 46.4458 169.644 46.8152V81.0836C169.643 81.453 169.496 81.8071 169.235 82.0683C168.974 82.3295 168.62 82.4765 168.25 82.4769Z" fill="white"/>
<path d="M168.25 82.4769H93.0118C92.6424 82.4765 92.2883 82.3295 92.0271 82.0683C91.7659 81.8071 91.619 81.453 91.6185 81.0836V46.8152C91.619 46.4458 91.7659 46.0916 92.0271 45.8304C92.2883 45.5692 92.6424 45.4223 93.0118 45.4219H168.25C168.62 45.4223 168.974 45.5692 169.235 45.8304C169.496 46.0916 169.643 46.4458 169.644 46.8152V81.0836C169.643 81.453 169.496 81.8071 169.235 82.0683C168.974 82.3295 168.62 82.4765 168.25 82.4769ZM93.0118 45.9792C92.7902 45.9794 92.5777 46.0676 92.421 46.2243C92.2642 46.381 92.1761 46.5935 92.1759 46.8152V81.0836C92.1761 81.3052 92.2642 81.5177 92.421 81.6744C92.5777 81.8312 92.7902 81.9193 93.0118 81.9196H168.25C168.472 81.9193 168.684 81.8312 168.841 81.6744C168.998 81.5177 169.086 81.3052 169.086 81.0836V46.8152C169.086 46.5935 168.998 46.381 168.841 46.2243C168.684 46.0676 168.472 45.9794 168.25 45.9792H93.0118Z" fill="#3F3D56"/>
<path d="M102.765 61.9967C105.997 61.9967 108.617 59.3767 108.617 56.1448C108.617 52.9129 105.997 50.293 102.765 50.293C99.5331 50.293 96.9131 52.9129 96.9131 56.1448C96.9131 59.3767 99.5331 61.9967 102.765 61.9967Z" fill="#F6AD55"/>
<path d="M116.28 52.2461C116.021 52.2461 115.773 52.3488 115.59 52.5318C115.407 52.7147 115.305 52.9627 115.305 53.2214C115.305 53.4801 115.407 53.7282 115.59 53.9111C115.773 54.094 116.021 54.1967 116.28 54.1967H162.259C162.518 54.1967 162.766 54.094 162.949 53.9111C163.132 53.7282 163.234 53.4801 163.234 53.2214C163.234 52.9627 163.132 52.7147 162.949 52.5318C162.766 52.3488 162.518 52.2461 162.259 52.2461H116.28Z" fill="#E6E6E6"/>
<path d="M116.28 58.0977C116.021 58.0977 115.773 58.2004 115.59 58.3833C115.407 58.5662 115.305 58.8143 115.305 59.073C115.305 59.3316 115.407 59.5797 115.59 59.7626C115.773 59.9455 116.021 60.0483 116.28 60.0483H136.065C136.324 60.0483 136.572 59.9455 136.755 59.7626C136.937 59.5797 137.04 59.3316 137.04 59.073C137.04 58.8143 136.937 58.5662 136.755 58.3833C136.572 58.2004 136.324 58.0977 136.065 58.0977H116.28Z" fill="#E6E6E6"/>
<path d="M98.2764 67.4531C97.5345 67.4531 96.9308 67.8907 96.9308 68.4284C96.9308 68.9662 97.5345 69.4037 98.2764 69.4037H161.713C162.455 69.4037 163.059 68.9662 163.059 68.4284C163.059 67.8907 162.455 67.4531 161.713 67.4531H98.2764Z" fill="#E6E6E6"/>
<path d="M98.2764 73.3047C97.5345 73.3047 96.9308 73.7423 96.9308 74.28C96.9308 74.8177 97.5345 75.2553 98.2764 75.2553H161.713C162.455 75.2553 163.059 74.8177 163.059 74.28C163.059 73.7423 162.455 73.3047 161.713 73.3047H98.2764Z" fill="#E6E6E6"/>
<path d="M224.54 37.055H149.301C148.932 37.0546 148.578 36.9077 148.317 36.6465C148.055 36.3853 147.908 36.0311 147.908 35.6617V1.3933C147.908 1.02391 148.055 0.669769 148.317 0.408568C148.578 0.147367 148.932 0.000433642 149.301 0H224.54C224.909 0.000434378 225.263 0.147367 225.524 0.408568C225.786 0.669769 225.933 1.02391 225.933 1.3933V35.6617C225.933 36.0311 225.786 36.3852 225.524 36.6464C225.263 36.9076 224.909 37.0546 224.54 37.055Z" fill="white"/>
<path d="M224.54 37.055H149.301C148.932 37.0546 148.578 36.9077 148.317 36.6465C148.055 36.3853 147.908 36.0311 147.908 35.6617V1.3933C147.908 1.02391 148.055 0.669769 148.317 0.408568C148.578 0.147367 148.932 0.000433642 149.301 0H224.54C224.909 0.000434378 225.263 0.147367 225.524 0.408568C225.786 0.669769 225.933 1.02391 225.933 1.3933V35.6617C225.933 36.0311 225.786 36.3852 225.524 36.6464C225.263 36.9076 224.909 37.0546 224.54 37.055ZM149.301 0.557321C149.08 0.557562 148.867 0.645716 148.71 0.802441C148.554 0.959166 148.466 1.17166 148.465 1.3933V35.6617C148.466 35.8834 148.554 36.0959 148.71 36.2526C148.867 36.4093 149.08 36.4975 149.301 36.4977H224.54C224.761 36.4975 224.974 36.4093 225.131 36.2526C225.287 36.0959 225.375 35.8834 225.376 35.6617V1.3933C225.375 1.17166 225.287 0.959165 225.131 0.802441C224.974 0.645717 224.761 0.557563 224.54 0.557321H149.301Z" fill="#3F3D56"/>
<path d="M159.054 16.5787C162.286 16.5787 164.906 13.9588 164.906 10.7269C164.906 7.49497 162.286 4.875 159.054 4.875C155.822 4.875 153.203 7.49497 153.203 10.7269C153.203 13.9588 155.822 16.5787 159.054 16.5787Z" fill="#F6AD55"/>
<path d="M172.569 6.82422C172.311 6.82422 172.063 6.92698 171.88 7.10988C171.697 7.29279 171.594 7.54086 171.594 7.79953C171.594 8.0582 171.697 8.30627 171.88 8.48918C172.063 8.67208 172.311 8.77484 172.569 8.77484H218.548C218.807 8.77484 219.055 8.67208 219.238 8.48918C219.421 8.30627 219.524 8.0582 219.524 7.79953C219.524 7.54086 219.421 7.29279 219.238 7.10988C219.055 6.92698 218.807 6.82422 218.548 6.82422H172.569Z" fill="#E6E6E6"/>
<path d="M172.569 12.6758C172.311 12.6758 172.063 12.7785 171.88 12.9614C171.697 13.1444 171.594 13.3924 171.594 13.6511C171.594 13.9098 171.697 14.1578 171.88 14.3407C172.063 14.5236 172.311 14.6264 172.569 14.6264H192.354C192.613 14.6264 192.861 14.5236 193.044 14.3407C193.227 14.1578 193.33 13.9098 193.33 13.6511C193.33 13.3924 193.227 13.1444 193.044 12.9614C192.861 12.7785 192.613 12.6758 192.354 12.6758H172.569Z" fill="#E6E6E6"/>
<path d="M154.566 22.0312C153.824 22.0312 153.22 22.4688 153.22 23.0066C153.22 23.5443 153.824 23.9819 154.566 23.9819H218.003C218.745 23.9819 219.348 23.5443 219.348 23.0066C219.348 22.4688 218.745 22.0312 218.003 22.0312H154.566Z" fill="#E6E6E6"/>
<path d="M154.566 27.8828C153.824 27.8828 153.22 28.3204 153.22 28.8581C153.22 29.3959 153.824 29.8334 154.566 29.8334H218.003C218.745 29.8334 219.348 29.3958 219.348 28.8581C219.348 28.3204 218.745 27.8828 218.003 27.8828H154.566Z" fill="#E6E6E6"/>
<path d="M224.54 127.899H149.301C148.932 127.898 148.578 127.751 148.317 127.49C148.055 127.229 147.908 126.875 147.908 126.505V92.2371C147.908 91.8677 148.055 91.5135 148.317 91.2523C148.578 90.9911 148.932 90.8442 149.301 90.8438H224.54C224.909 90.8442 225.263 90.9911 225.524 91.2523C225.786 91.5135 225.933 91.8677 225.933 92.2371V126.505C225.933 126.875 225.786 127.229 225.524 127.49C225.263 127.751 224.909 127.898 224.54 127.899Z" fill="white"/>
<path d="M224.54 127.899H149.301C148.932 127.898 148.578 127.751 148.317 127.49C148.055 127.229 147.908 126.875 147.908 126.505V92.2371C147.908 91.8677 148.055 91.5135 148.317 91.2523C148.578 90.9911 148.932 90.8442 149.301 90.8438H224.54C224.909 90.8442 225.263 90.9911 225.524 91.2523C225.786 91.5135 225.933 91.8677 225.933 92.2371V126.505C225.933 126.875 225.786 127.229 225.524 127.49C225.263 127.751 224.909 127.898 224.54 127.899ZM149.301 91.4011C149.08 91.4013 148.867 91.4895 148.71 91.6462C148.554 91.8029 148.466 92.0154 148.465 92.2371V126.505C148.466 126.727 148.554 126.94 148.71 127.096C148.867 127.253 149.08 127.341 149.301 127.341H224.54C224.761 127.341 224.974 127.253 225.131 127.096C225.287 126.94 225.375 126.727 225.376 126.505V92.2371C225.375 92.0154 225.287 91.8029 225.131 91.6462C224.974 91.4895 224.761 91.4013 224.54 91.4011H149.301Z" fill="#3F3D56"/>
<path d="M159.054 107.419C162.286 107.419 164.906 104.799 164.906 101.567C164.906 98.3348 162.286 95.7148 159.054 95.7148C155.822 95.7148 153.203 98.3348 153.203 101.567C153.203 104.799 155.822 107.419 159.054 107.419Z" fill="#F6AD55"/>
<path d="M172.569 97.668C172.311 97.668 172.063 97.7707 171.88 97.9536C171.697 98.1365 171.594 98.3846 171.594 98.6433C171.594 98.9019 171.697 99.15 171.88 99.3329C172.063 99.5158 172.311 99.6186 172.569 99.6186H218.548C218.807 99.6186 219.055 99.5158 219.238 99.3329C219.421 99.15 219.524 98.9019 219.524 98.6433C219.524 98.3846 219.421 98.1365 219.238 97.9536C219.055 97.7707 218.807 97.668 218.548 97.668H172.569Z" fill="#E6E6E6"/>
<path d="M172.569 103.52C172.311 103.52 172.063 103.622 171.88 103.805C171.697 103.988 171.594 104.236 171.594 104.495C171.594 104.754 171.697 105.002 171.88 105.184C172.063 105.367 172.311 105.47 172.569 105.47H192.354C192.613 105.47 192.861 105.367 193.044 105.184C193.227 105.002 193.33 104.754 193.33 104.495C193.33 104.236 193.227 103.988 193.044 103.805C192.861 103.622 192.613 103.52 192.354 103.52H172.569Z" fill="#E6E6E6"/>
<path d="M154.566 112.875C153.824 112.875 153.22 113.313 153.22 113.85C153.22 114.388 153.824 114.826 154.566 114.826H218.003C218.745 114.826 219.348 114.388 219.348 113.85C219.348 113.313 218.745 112.875 218.003 112.875H154.566Z" fill="#E6E6E6"/>
<path d="M154.566 118.727C153.824 118.727 153.22 119.164 153.22 119.702C153.22 120.24 153.824 120.677 154.566 120.677H218.003C218.745 120.677 219.348 120.24 219.348 119.702C219.348 119.164 218.745 118.727 218.003 118.727H154.566Z" fill="#E6E6E6"/>
<path d="M72.6213 156.045L76.3514 154.962L73.9474 140.059L68.4422 141.658L72.6213 156.045Z" fill="#9F616A"/>
<path d="M84.5513 156.336L72.8282 159.741L71.5125 155.212L79.2519 152.964C80.3085 152.657 81.4436 152.782 82.4077 153.312C83.3718 153.842 84.0859 154.734 84.3928 155.79L84.5513 156.336Z" fill="#2F2E41"/>
<path d="M34.0739 156.135L37.9581 156.135L39.8059 141.152L34.0731 141.153L34.0739 156.135Z" fill="#9F616A"/>
<path d="M45.4492 159.742L33.2416 159.743L33.2414 155.026L41.3006 155.026C42.4008 155.026 43.456 155.463 44.234 156.241C45.012 157.019 45.4491 158.074 45.4492 159.174L45.4492 159.742Z" fill="#2F2E41"/>
<path d="M43.2131 103.983C43.5094 103.623 43.7234 103.203 43.8399 102.752C43.9564 102.301 43.9726 101.83 43.8873 101.372C43.8021 100.915 43.6175 100.481 43.3465 100.102C43.0756 99.7232 42.7248 99.4084 42.3191 99.1798L44.3359 88.0391L38.9259 90.3513L37.8401 100.576C37.5012 101.283 37.4335 102.09 37.6498 102.844C37.8661 103.598 38.3513 104.246 39.0136 104.666C39.6759 105.086 40.4692 105.248 41.2432 105.122C42.0172 104.996 42.7181 104.591 43.2131 103.983Z" fill="#9F616A"/>
<path d="M38.0373 97.1992L43.364 98.2806L45.8305 80.2971L45.8387 80.279L53.6531 62.7678C53.6573 62.752 54.5966 59.7695 53.5895 57.8388C53.4085 57.4884 53.1573 57.1789 52.8516 56.9296C52.5459 56.6803 52.1922 56.4965 51.8124 56.3897C48.3721 55.332 46.7923 57.8186 46.6599 58.0395L40.3127 77.3083L38.0373 97.1992Z" fill="#F6AD55"/>
<path d="M67.9641 153.114L61.5979 124.784L52.594 105.845L42.8311 152.455L28.2864 150.839L41.6257 101.611C41.4175 100.858 38.5011 89.6206 47.3541 83.7791L48.8848 78.6328L62.0296 81.6979L61.8701 93.9776L72.947 119.297L82.5005 148.592L67.9641 153.114Z" fill="#2F2E41"/>
<path d="M62.4974 83.3854L48.913 82.0917L49.2334 73.7618C48.7482 72.8942 42.3604 61.2451 46.5727 57.0057L47.851 55.0884L47.8801 55.0721C47.9319 55.0428 53.1055 52.2282 57.5632 57.9592C58.5805 59.235 59.6762 60.4463 60.8439 61.5859C63.7012 64.4713 65.5908 66.3789 62.9773 71.3886L62.4974 83.3854Z" fill="#F6AD55"/>
<path d="M58.3193 51.6462C62.0904 49.5847 63.4762 44.8566 61.4148 41.0856C59.3534 37.3146 54.6253 35.9287 50.8543 37.9901C47.0833 40.0515 45.6974 44.7797 47.7588 48.5507C49.8202 52.3217 54.5483 53.7076 58.3193 51.6462Z" fill="#9F616A"/>
<path d="M57.8017 103.549C57.9975 103.126 58.0982 102.666 58.0968 102.2C58.0954 101.734 57.9919 101.274 57.7936 100.853C57.5953 100.431 57.307 100.059 56.949 99.7607C56.591 99.4627 56.172 99.2469 55.7216 99.1284L54.854 87.8398L50.2051 91.4456L51.7416 101.613C51.5927 102.382 51.7313 103.18 52.1313 103.855C52.5313 104.529 53.1648 105.034 53.9117 105.272C54.6587 105.511 55.4673 105.467 56.1842 105.15C56.9011 104.832 57.4767 104.262 57.8017 103.549Z" fill="#9F616A"/>
<path d="M50.8384 98.5874L47.9669 78.4865L49.2397 58.1673C49.2487 58.1345 50.1831 54.8783 54.0915 55.0495C54.523 55.0578 54.9482 55.1548 55.3406 55.3344C55.733 55.514 56.0843 55.7725 56.3726 56.0936C57.9136 57.7938 57.7581 60.9305 57.7508 61.0631L54.6227 79.9772L56.8172 98.2552L50.8384 98.5874Z" fill="#F6AD55"/>
<path d="M64.8026 38.8636C64.5265 37.2623 63.1962 36.0026 61.6998 35.3693C60.2032 34.736 58.5454 34.6235 56.923 34.5332C55.5445 34.4247 54.1595 34.429 52.7817 34.546C52.9653 34.3072 53.0902 34.0285 53.1462 33.7325C53.2645 33.046 52.8538 32.269 52.1609 32.1181C51.6625 32.0095 51.1529 32.2215 50.6599 32.3663C50.1668 32.5112 49.5705 32.5687 49.2042 32.2253C48.7855 31.8329 48.8856 31.1234 48.5279 30.6773C48.1936 30.2605 47.5394 30.203 47.0273 30.3995C46.5306 30.6307 46.0872 30.9622 45.725 31.3733L45.2621 31.8318C45.2218 31.8018 45.1778 31.7747 45.1386 31.7439C43.9186 30.7851 43.3111 29.3779 44.0035 28.1953C43.6539 28.7953 43.485 29.4834 43.5171 30.1771C43.5491 30.8707 43.7808 31.5403 44.1842 32.1055C44.2912 32.2619 44.4078 32.4116 44.5333 32.5536C44.2913 32.7933 44.0493 33.0331 43.8073 33.2728C43.4342 33.6423 43.0305 34.1011 43.1254 34.6052C43.2248 35.1344 43.8658 35.4196 44.415 35.3404C44.8617 35.2498 45.2804 35.0542 45.6367 34.7699C45.1409 35.1201 44.7434 35.5919 44.4823 36.1399C44.3332 36.4532 44.2735 36.8017 44.3099 37.1469C44.3463 37.492 44.4773 37.8204 44.6886 38.0957C44.9938 38.4292 45.4146 38.6338 45.8654 38.6678C45.0789 39.817 44.5667 41.1315 44.3686 42.51C44.1544 44.2799 44.4452 46.0743 45.2074 47.6859C45.9696 49.2976 47.1721 50.6608 48.676 51.6183C49.4938 52.1682 50.4517 52.473 51.4369 52.4968C52.416 52.4768 53.4238 51.987 53.8679 51.1143C54.3307 50.205 54.1149 49.1157 53.9243 48.1134C53.7335 47.1111 53.6034 45.9842 54.1912 45.1502C54.779 44.3162 56.3674 44.2655 56.6347 45.2502C57.1761 44.3226 57.9937 43.5871 58.9733 43.1464C59.9528 42.7057 61.0455 42.5817 62.0989 42.7918L62.5224 43.4736C64.1413 43.3328 65.0787 40.465 64.8026 38.8636Z" fill="#2F2E41"/>
<path d="M106.515 159.999H0.345677C0.271772 159.999 0.200893 159.969 0.148634 159.917C0.0963752 159.865 0.0670166 159.794 0.0670166 159.72C0.0670166 159.646 0.0963752 159.575 0.148634 159.523C0.200893 159.471 0.271772 159.441 0.345677 159.441H106.515C106.589 159.441 106.66 159.471 106.712 159.523C106.765 159.575 106.794 159.646 106.794 159.72C106.794 159.794 106.765 159.865 106.712 159.917C106.66 159.969 106.589 159.999 106.515 159.999Z" fill="#CCCCCC"/>
</g>
<defs>
<clipPath id="clip0_1142_17559">
<rect width="225.866" height="160" fill="white" transform="translate(0.0670166)"/>
</clipPath>
</defs>
</svg>
