<svg width="300" height="200" viewBox="0 0 300 200" fill="none" xmlns="http://www.w3.org/2000/svg">
<g clip-path="url(#clip0_680_19407)">
<path d="M281.194 189.808L277.824 192.003L267.77 180.028L272.743 176.789L281.194 189.808Z" fill="#A0616A"/>
<path d="M283.598 193.249L273.236 199.998L273.151 199.867C272.455 198.796 272.213 197.491 272.478 196.241C272.742 194.991 273.492 193.897 274.561 193.2L275.521 190.529L279.986 189.667L280.89 189.078L283.598 193.249Z" fill="#2F2E41"/>
<path d="M223.447 195.557L219.428 195.556L217.516 180.027L223.448 180.028L223.447 195.557Z" fill="#A0616A"/>
<path d="M223.589 199.758L211.229 199.757V199.601C211.229 198.323 211.736 197.097 212.638 196.194C213.54 195.29 214.764 194.782 216.04 194.782L218.298 193.066L222.51 194.782H223.589L223.589 199.758Z" fill="#2F2E41"/>
<path d="M265.05 100.565L229.008 101.359L225.436 105.832C225.436 105.832 225.745 104.255 225.47 105.987C225.195 107.72 218.241 142.257 219.556 143.416C220.87 144.574 217.063 152.571 216.784 153.059C216.504 153.547 213.491 177.62 216.784 179.599L218.021 188.002H223.777C223.777 188.002 229.543 181.318 228.382 180.107C227.222 178.895 230.541 174.866 230.668 172.705C230.794 170.545 232.006 160.746 231.067 159.175C230.129 157.603 228.859 151.707 231.241 149.421C233.623 147.135 244.731 119.045 244.731 119.045C244.731 119.045 247.959 151.976 247.951 154.562C247.941 157.925 250.146 156.261 250.146 159.213C250.146 159.809 257.324 175.139 262.149 179.93L272.125 187.618L276.73 184.159V179.162C276.73 179.162 272.463 169.89 270.974 168.399C269.486 166.908 263.989 162.344 263.989 160.257C263.989 158.169 261.402 157.442 263.142 154.674C264.883 151.907 264.287 150.714 263.692 149.521C263.096 148.328 264.225 99.4531 264.225 99.4531L265.05 100.565Z" fill="#2F2E41"/>
<path d="M250.022 28.0925C256.037 28.0925 260.913 23.2081 260.913 17.183C260.913 11.1578 256.037 6.27344 250.022 6.27344C244.006 6.27344 239.13 11.1578 239.13 17.183C239.13 23.2081 244.006 28.0925 250.022 28.0925Z" fill="#A0616A"/>
<path d="M258.722 104.736L261.788 95.4922L267.304 96.5097L263.716 106.168C263.934 106.734 263.99 107.349 263.878 107.945C263.766 108.542 263.491 109.095 263.082 109.542C262.674 109.99 262.148 110.315 261.566 110.48C260.983 110.645 260.366 110.644 259.784 110.477C259.201 110.311 258.677 109.984 258.27 109.535C257.863 109.086 257.588 108.533 257.478 107.936C257.368 107.34 257.426 106.724 257.646 106.159C257.866 105.594 258.238 105.101 258.722 104.736Z" fill="#A0616A"/>
<path d="M195.141 86.8699L202.653 80.6836L206.779 84.4889L198.605 90.7464C198.489 91.3417 198.209 91.8927 197.797 92.3374C197.385 92.7821 196.858 93.1029 196.274 93.2637C195.69 93.4246 195.073 93.4191 194.492 93.2479C193.911 93.0766 193.389 92.7465 192.985 92.2945C192.581 91.8425 192.311 91.2867 192.205 90.6894C192.099 90.0921 192.162 89.4771 192.386 88.9135C192.61 88.3499 192.987 87.8601 193.473 87.499C193.96 87.138 194.537 86.9202 195.141 86.8699Z" fill="#A0616A"/>
<path d="M236.981 15.2757C238.155 15.6408 239.287 15.8561 240.051 14.8913C240.815 13.9266 240.615 12.8234 241.751 12.3583C242.701 12.0393 243.735 12.0873 244.652 12.4929C244.817 12.5543 244.978 12.6235 245.135 12.6927C245.224 12.6158 245.312 12.5428 245.408 12.4736C246.13 11.9594 247.021 11.742 247.898 11.8663C247.257 12.1765 246.729 12.6808 246.39 13.3077C246.705 13.4653 247.023 13.6229 247.346 13.7574C248.7 14.3125 250.165 14.5438 251.624 14.433C253.084 14.3223 254.497 13.8725 255.753 13.1194C254.494 16.4403 255.473 17.6242 257.318 20.6568L257.391 20.8336C257.207 20.038 259.621 19.1194 259.621 20.2725C259.515 21.4539 259.257 22.6166 258.853 23.7318C261.221 20.161 262.618 15.9829 261.701 11.9739C261.505 11.1322 261.417 10.2289 260.883 9.54473C260.35 8.86441 259.368 8.46466 258.592 8.84903C258.496 7.54545 258.049 6.29231 257.299 5.22284C256.549 4.15336 255.523 3.30754 254.331 2.77527C253.14 2.24301 251.826 2.04421 250.53 2.2C249.235 2.35579 248.006 2.86035 246.973 3.66005C246.014 4.40188 245.258 5.37434 244.402 6.23917C243.547 7.10402 242.534 7.89195 241.336 8.1072C240.577 8.24173 239.721 8.16101 239.115 8.64149C238.412 9.19883 238.405 10.179 238.409 11.1207C239.096 11.101 239.773 11.287 240.354 11.6549C239.643 11.6728 238.955 11.9149 238.389 12.3468C238.379 12.3535 238.368 12.3613 238.359 12.3699C238.152 13.9535 238.236 14.2879 236.981 15.2757Z" fill="#2F2E41"/>
<path d="M275.3 51.0354C275.046 49.8185 274.545 48.6672 273.826 47.6535C273.108 46.6399 272.188 45.7858 271.125 45.1447C271.045 44.7375 270.904 44.477 270.688 44.3999C267.592 43.2976 258.95 38.205 258.95 38.205L258.226 32.3815L242.588 31.6289L238.586 38.205C238.586 38.205 228.221 39.2486 228.413 43.0496C225.903 46.1861 214.728 60.2005 208.03 69.4684C204.829 73.8979 202.649 77.2444 202.929 77.7986C203.872 79.6647 202.548 78.4056 201.066 78.7428C199.585 79.08 200.303 79.9569 200.337 81.2497C200.37 82.5425 195.275 85.2628 195.275 85.2628C198.384 86.3758 202.278 90.9513 202.278 90.9513C202.278 90.9513 206.049 86.9719 206.733 86.556C207.418 86.14 207.8 85.533 209.966 84.7799C212.132 84.0268 211.223 83.4534 211.38 81.8571C211.537 80.2608 212.064 81.4412 215.106 79.9686C218.147 78.4961 215.678 79.058 216.52 77.0458C217.362 75.0336 217.092 76.1352 219.831 74.4715C221.477 73.4716 223.112 72.003 225.386 69.4684C226.896 67.7861 228.687 65.6352 230.953 62.8368C230.968 62.8178 230.983 62.798 230.998 62.779C231.15 65.0474 231.268 67.3168 231.337 69.4684C231.535 75.5819 231.346 80.7369 230.458 82.1565C229.211 84.149 227.1 90.8171 225.385 96.6717C225.053 97.807 224.994 99.0051 225.214 100.168C225.433 101.33 225.925 102.424 226.649 103.359C227.372 104.294 228.307 105.044 229.376 105.547C230.445 106.051 231.617 106.293 232.798 106.254C243.442 105.903 259.017 105.089 262.052 103.305C263.704 103.541 265.335 103.9 266.933 104.379C266.933 104.379 268.007 98.9992 268.365 98.2819C268.723 97.5645 268.723 96.8472 270.156 95.0538C271.588 93.2604 270.514 93.2604 269.797 91.8256C269.081 90.391 270.156 91.1083 271.946 88.2389C273.736 85.3695 271.946 87.1628 271.588 85.0107C271.23 82.8587 271.588 83.9347 273.02 81.0653C274.207 78.6877 274.902 75.5681 275.717 69.4684C275.885 68.2066 276.059 66.8204 276.243 65.2835C276.851 60.2063 276.082 54.7841 275.3 51.0354Z" fill="#F6AD55"/>
<path d="M33.0588 177.331L35.612 180.034L47.4675 171.236L43.6993 167.246L33.0588 177.331Z" fill="#C78F8F"/>
<path d="M37.2428 178.828L34.3523 176.108L33.6424 175.441L26.2837 181.335L28.1979 183.361L30.4511 181.914L29.416 184.651L34.4912 190.024C34.7344 190.282 35.0535 190.455 35.4018 190.518C35.7501 190.582 36.1096 190.532 36.4276 190.376C36.7456 190.22 37.0055 189.966 37.1695 189.652C37.3335 189.338 37.3929 188.979 37.339 188.629L36.2437 181.531L38.1739 179.702L37.2428 178.828Z" fill="#2F2E41"/>
<path d="M89.1719 78.9117L88.3624 87.7639C88.3624 87.7639 86.9494 94.4333 87.9278 93.8927C88.9062 93.3522 87.152 95.7852 87.614 97.895C88.076 100.005 83.6677 115.738 85.6643 114.109C87.661 112.479 84.5104 123.738 82.5179 129.293C81.9078 131.01 81.2809 132.749 80.65 134.474C80.5255 134.823 80.4009 135.168 80.2724 135.518C79.4545 137.763 78.6367 139.975 77.8523 142.062C77.7403 142.353 77.6322 142.644 77.5244 142.931C77.5202 142.94 77.5202 142.948 77.5161 142.948C74.9342 149.754 72.7217 155.11 71.8376 155.996C71.3769 156.457 64.0671 161.746 56.6992 167.043C48.9661 172.602 41.1706 178.174 41.1706 178.174L33.8898 170.523C33.8898 170.523 34.0641 170.473 34.3921 170.374C34.9981 170.199 36.1189 169.87 37.5884 169.434C43.715 167.625 35.9321 164.81 41.4945 162.798C43.0634 162.232 44.1095 161.792 44.346 161.559C45.7283 160.208 47.5838 156.985 48.4596 158.336C49.3354 159.688 53.308 149.646 54.4535 148.653C55.0679 148.116 57.0728 145.609 58.7913 143.405C60.2689 141.509 61.5391 139.834 61.5391 139.834C61.5391 139.834 61.564 138.936 61.6013 137.505C61.6554 135.389 61.7343 132.1 61.8174 128.807C61.8131 128.803 61.8131 128.803 61.8174 128.803C61.8464 127.564 61.8754 126.324 61.9046 125.148C61.9252 124.237 61.9459 123.36 61.9668 122.549C62.0207 120.121 62.058 118.283 62.058 117.826C62.058 116.325 62.058 117.493 63.241 116.587C63.4177 116.448 63.5855 116.298 63.7433 116.138C63.9962 115.91 64.2295 115.661 64.4407 115.393C64.5279 115.206 63.9841 115.46 63.2784 115.319C62.8962 115.242 62.5428 115.06 62.2572 114.795C60.7712 113.456 62.3736 109.34 62.3736 109.34C58.9947 102.57 59.2397 97.0194 60.821 92.7409C62.0036 89.6707 63.8805 86.9168 66.3044 84.6955C67.2269 83.8148 68.232 83.0253 69.3057 82.3378L69.4095 81.7766L70.551 75.5854C71.158 75.2513 71.7893 74.9636 72.4395 74.7247C74.4671 73.996 76.6426 73.779 78.7738 74.0927C80.8919 74.3997 82.9426 75.0648 84.8384 76.0594C86.3881 76.8393 87.8423 77.7964 89.1719 78.9117Z" fill="#2F2E41"/>
<path d="M57.2911 191.122L60.99 191.467L64.1069 177.02L58.6472 176.512L57.2911 191.122Z" fill="#C78F8F"/>
<path d="M67.9441 196.784L62.4482 192.173L62.6973 189.52L61.4189 189.479L57.459 189.35H57.4547L56.4835 189.316L54.8354 198.605L57.6124 198.863L58.3471 196.285L59.3725 199.029L60.8419 199.167L66.7237 199.715C66.7736 199.72 66.8275 199.724 66.8774 199.724C67.1112 199.724 67.3424 199.675 67.5557 199.579C67.769 199.482 67.9594 199.342 68.1143 199.167C68.3551 198.903 68.5024 198.567 68.5335 198.21C68.5578 197.943 68.5169 197.673 68.4142 197.424C68.3115 197.176 68.1502 196.956 67.9441 196.784Z" fill="#2F2E41"/>
<path d="M77.8523 142.063C76.4451 149.734 70.4885 167.722 66.8856 178.25C65.2459 183.06 64.1004 186.316 64.1004 186.316L62.2325 185.725H62.2282L59.0694 184.727L57.9196 184.362H57.9153L56.5207 183.917C56.5207 183.917 56.6826 175.326 56.6992 167.044C56.7116 163.572 56.695 160.15 56.6287 157.439C56.5539 154.483 56.4252 152.366 56.2136 151.946C55.3376 150.225 56.803 150.042 58.3513 149.61C59.9036 149.173 58.6916 148.516 58.0896 147.119C57.6831 146.188 58.4841 144.944 59.0528 144.238C59.2097 144.039 59.3774 143.848 59.555 143.668C59.555 143.668 59.281 143.572 58.7913 143.406C60.2689 141.51 61.5391 139.834 61.5391 139.834C61.5391 139.834 61.564 138.936 61.6013 137.506C61.6554 135.39 61.7343 132.101 61.8174 128.808C61.8131 128.803 61.8131 128.803 61.8174 128.803C61.8464 127.564 61.8753 126.325 61.9046 125.148C64.2788 126.974 66.5867 128.762 68.6788 130.417C68.6813 130.419 68.6834 130.421 68.6849 130.424C68.6863 130.427 68.6871 130.43 68.6871 130.433C73.7138 134.412 77.4871 137.606 78.0184 138.62C78.2591 139.078 78.176 140.3 77.8523 142.063Z" fill="#2F2E41"/>
<path d="M299.585 200H0.415092C0.305003 200 0.199422 199.956 0.121577 199.878C0.0437325 199.8 0 199.694 0 199.584C0 199.473 0.0437325 199.368 0.121577 199.29C0.199422 199.212 0.305003 199.168 0.415092 199.168H299.585C299.695 199.168 299.801 199.212 299.878 199.29C299.956 199.368 300 199.473 300 199.584C300 199.694 299.956 199.8 299.878 199.878C299.801 199.956 299.695 200 299.585 200Z" fill="#E6E6E6"/>
<path d="M68.455 63.9492L69.2328 71.1765L68.7754 80.6537L89.7314 78.1598L91.7001 63.9492L89.1913 63.9742L68.455 63.9492Z" fill="#FFB6B6"/>
<path d="M86.2803 40.603L78.3935 34.3661L74.2535 34.125L68.1105 38.067L66.6062 45.754L63.0487 54.41L68.2666 77.77C68.2666 77.77 68.756 79.4463 67.4736 79.6476C66.1911 79.849 66.3449 82.3199 66.3449 82.3199C66.3449 82.3199 66.6061 84.4613 65.3608 84.6499C64.1155 84.8385 60.7949 84.8385 63.7006 88.5806C66.6062 92.3228 89.5881 78.1694 89.5881 78.1694L92.9261 60.6253C92.9261 60.6253 99.3995 51.916 92.4281 46.9281L86.2803 40.603Z" fill="#F6AD55"/>
<path d="M51.8509 93.6432C51.5034 93.2088 51.2552 92.7034 51.1238 92.1626C50.9924 91.6217 50.981 91.0586 51.0903 90.5128C51.1997 89.967 51.4272 89.4519 51.7568 89.0038C52.0864 88.5556 52.5101 88.1853 52.998 87.9189L62.9183 54.5703L69.1214 57.6986L58.318 89.6628C58.7104 90.5136 58.7777 91.479 58.507 92.3761C58.2364 93.2732 57.6466 94.0397 56.8494 94.5303C56.0523 95.021 55.1032 95.2016 54.1819 95.0381C53.2607 94.8746 52.4313 94.3783 51.8509 93.6432Z" fill="#C78F8F"/>
<path d="M69.5351 37.7584C69.5351 37.7584 67.7619 36.8144 66.549 40.8993C65.578 44.1695 57.699 63.6485 57.5985 68.3844C56.95 68.5221 56.3658 68.8719 55.9377 69.3788C55.5096 69.8856 55.262 70.5208 55.234 71.1841L64.9757 72.4918C66.678 71.0536 67.1246 69.1111 66.466 68.5346L68.5811 62.748L77.4053 44.3369L70.8289 38.4179L69.5351 37.7584Z" fill="#F6AD55"/>
<path d="M121.588 82.6792C121.714 82.137 121.72 81.5737 121.605 81.0291C121.49 80.4845 121.257 79.9718 120.923 79.5271C120.588 79.0824 120.161 78.7165 119.67 78.4552C119.179 78.1939 118.638 78.0435 118.083 78.0146L95.3257 51.9805L90.4983 57.7504L114.039 81.8916C114.052 82.8286 114.408 83.7283 115.04 84.4199C115.671 85.1116 116.534 85.5472 117.464 85.6443C118.395 85.7414 119.329 85.4932 120.089 84.9467C120.849 84.4002 121.382 83.5934 121.588 82.6792Z" fill="#C78F8F"/>
<path d="M81.5178 39.9542C81.5178 39.9542 82.7091 38.3349 85.5662 41.4927C87.8535 44.0207 103.367 58.1712 105.502 62.3978C106.146 62.2411 106.824 62.3034 107.429 62.575C108.034 62.8466 108.531 63.3121 108.843 63.898L100.624 69.297C98.4679 68.7376 97.2266 67.1796 97.5716 66.3745L93.1663 62.0731L77.2615 49.295L80.6359 41.1093L81.5178 39.9542Z" fill="#F6AD55"/>
<path d="M191.1 94.4324C190.444 94.2051 189.901 93.73 189.589 93.1082C189.276 92.4863 189.218 91.7669 189.427 91.103C189.472 90.9687 189.527 90.8383 189.593 90.7132L183.308 83.8364L185.67 79.4141L193.263 89.7669C193.759 90.0814 194.138 90.5518 194.34 91.1047C194.542 91.6575 194.555 92.2617 194.378 92.8229C194.274 93.1412 194.108 93.436 193.891 93.6903C193.673 93.9447 193.408 94.1536 193.11 94.3051C192.811 94.4567 192.486 94.5479 192.153 94.5737C191.82 94.5994 191.484 94.5591 191.167 94.455C191.144 94.4478 191.122 94.4403 191.1 94.4324Z" fill="#FFB6B6"/>
<path d="M150.806 42.1998C150.598 43.1709 150.576 44.1725 150.741 45.1518C150.784 45.4289 150.844 45.7032 150.92 45.9731C151.201 46.982 151.469 47.9116 151.727 48.7504C151.879 49.2714 152.035 49.7623 152.184 50.2179C153.044 52.878 153.715 54.3841 154.192 54.701C154.422 54.856 154.654 54.998 154.879 55.1366C156.031 55.8428 156.866 56.3546 156.308 57.6579C156.227 57.8441 156.13 58.0232 156.02 58.1936C155.835 58.4799 155.63 58.7531 155.408 59.0112C155.281 59.1572 155.164 59.3114 155.057 59.4729C154.918 59.679 154.858 59.8527 154.933 60.0099C155.027 60.2034 155.289 60.2996 155.851 60.3268C155.94 60.3308 156.043 60.3363 156.152 60.3359C156.188 60.3382 156.225 60.3367 156.266 60.3371C156.338 60.3381 156.42 60.3387 156.503 60.3356C157.198 60.3223 158.094 60.6885 159.053 61.2476C161.883 62.8989 165.219 66.2227 165.259 66.264L186.084 87.5936L186.49 87.3213L187.454 86.6727L187.787 86.4499L188.167 86.1936L189.823 85.0833L190.661 84.5231L185.289 74.6445L184.704 73.5706L184.203 72.6441L173.949 53.7803L169.876 47.2951L168.966 45.8503L165.093 39.6886C164.546 38.8168 163.833 38.0614 162.995 37.4656C162.156 36.8697 161.209 36.4452 160.207 36.2161C159.205 35.987 158.167 35.9578 157.154 36.1304C156.14 36.3029 155.171 36.6736 154.3 37.2215C154.242 37.2584 154.183 37.2962 154.126 37.3347C152.431 38.4638 151.241 40.2082 150.806 42.1998Z" fill="#1565C0"/>
<path d="M152.188 191.254L148.373 191.221L146.684 176.137L152.315 176.185L152.188 191.254Z" fill="#FEDADA"/>
<path d="M153.2 189.491L152.204 189.424L148.14 189.146L146.832 189.059L146.808 191.79L140.714 195.932C140.413 196.136 140.185 196.432 140.064 196.776C139.943 197.119 139.934 197.493 140.04 197.842C140.146 198.19 140.36 198.496 140.651 198.714C140.943 198.932 141.296 199.051 141.66 199.054L149.244 199.117L150.572 196.422L151.058 199.133L153.922 199.158L153.2 189.491Z" fill="#2F2E41"/>
<path d="M192.357 188.463L188.71 189.586L182.554 175.716L187.937 174.059L192.357 188.463Z" fill="#FEDADA"/>
<path d="M192.791 186.477L191.82 186.714L187.864 187.674L186.59 187.986L187.391 190.601L182.829 196.389C182.604 196.675 182.476 197.026 182.463 197.39C182.451 197.754 182.555 198.113 182.76 198.413C182.965 198.714 183.261 198.941 183.604 199.062C183.948 199.182 184.32 199.19 184.668 199.084L191.92 196.851L192.372 193.878L193.655 196.314L196.39 195.47L192.791 186.477Z" fill="#2F2E41"/>
<path d="M144.514 64.4141L137.233 85.6086L136.993 87.3047C135.158 89.0495 137.463 89.6243 136.599 90.0844C135.734 90.5446 135.153 91.8344 136.318 92.0649C137.482 92.2954 141.237 174.963 146.189 178.173C151.141 181.382 154.155 183.704 153.246 179.004C152.879 177.111 153.397 166.958 154.147 155.509C154.232 154.211 155.574 152.838 154.41 151.576C153.246 150.314 154.553 149.484 154.627 148.437C155.671 133.487 156.877 118.726 156.877 118.726C156.877 118.726 164.595 145.278 166.6 143.222C168.604 141.167 167.811 146.228 168.423 147.74C168.935 149.004 166.751 151.486 169.961 151.524C173.17 151.562 180.707 177.37 181.472 177.341C182.987 177.283 187.245 177.447 189.774 176.925C191.022 176.668 185.479 157.128 180.851 140.255C180.482 138.91 178.473 138.878 179.765 136.281C181.057 133.683 174.628 116.874 175.18 116.096C176.644 114.033 177.202 113.136 175.758 113.001C174.314 112.866 173.887 113.659 173.809 111.657C173.731 109.656 173.482 104.72 173.482 104.72C173.482 104.72 172.436 85.199 165.111 74.4139L164.486 68.0057L144.514 64.4141Z" fill="#2F2E41"/>
<path d="M162.703 23.9492L153.048 25.3263L152.465 32.3295L147.701 39.7952C147.701 39.7952 137.11 47.2607 144.496 59.054C141.686 69.2131 138.891 78.956 136.227 85.4516C134.151 98.3411 152.744 99.5765 174 95.0148C174 95.0148 173.707 89.5034 171.778 86.8538C169.849 84.2042 170.899 83.6257 170.899 83.6257L169.551 78.6756C170.314 71.5205 167.739 70.8783 166.528 67.5725L170.203 33.2718L162.703 23.9492Z" fill="#1565C0"/>
<path d="M116.352 83.9054C116.455 83.2168 116.821 82.5954 117.374 82.1734C117.927 81.7514 118.622 81.5621 119.312 81.6457C119.452 81.6649 119.59 81.6957 119.725 81.7378L125.318 74.2852L130.092 75.7974L121.328 85.1768C121.111 85.7237 120.719 86.183 120.213 86.4833C119.708 86.7835 119.118 86.9076 118.534 86.8364C117.865 86.7481 117.258 86.397 116.847 85.8603C116.436 85.3236 116.254 84.6454 116.342 83.9748C116.345 83.9516 116.349 83.9285 116.352 83.9054Z" fill="#FFB6B6"/>
<path d="M166.03 37.5016C165.893 37.3311 165.744 37.1648 165.586 37.0026C164.49 35.8708 163.078 35.0969 161.535 34.7823C159.992 34.4678 158.391 34.6272 156.94 35.2397C156.799 35.2978 156.658 35.3644 156.521 35.431C151.56 37.8715 148.883 39.4974 148.559 40.2583C148.447 40.5161 148.352 40.7697 148.256 41.015C148.165 41.2561 148.078 41.4848 147.986 41.6926C147.605 42.5825 147.164 43.1355 146.044 42.886C145.672 42.795 145.314 42.6567 144.977 42.4745C144.823 42.3996 144.682 42.3206 144.549 42.2457C144.068 41.9797 143.719 41.7885 143.483 41.9631C143.254 42.1334 143.246 42.5659 143.454 43.568C143.522 43.9862 143.511 44.4137 143.42 44.8277C143.146 46.0356 142.716 47.2026 142.142 48.2997C141.281 50.0193 140.314 51.683 139.244 53.2809L129.369 67.3845L128.701 68.3367L127.971 69.3804L122.143 77.7046L122.487 78.0579L123.932 79.5341L124.251 79.8625L124.542 80.1618L125.293 80.9311L125.999 81.6504L141.743 68.8024L143.499 67.3678L146.646 64.7984L153.092 59.5387L165.292 48.229C166.062 47.5208 166.681 46.6641 167.113 45.7102C167.544 44.7564 167.779 43.7251 167.803 42.6781C167.803 42.6075 167.807 42.5409 167.807 42.4702C167.812 40.6571 167.183 38.8995 166.03 37.5016Z" fill="#1565C0"/>
<path d="M156.907 23.6965C162.865 23.6965 167.696 18.8579 167.696 12.8893C167.696 6.92059 162.865 2.08203 156.907 2.08203C150.948 2.08203 146.118 6.92059 146.118 12.8893C146.118 18.8579 150.948 23.6965 156.907 23.6965Z" fill="#FEDADA"/>
<path d="M171.205 27.8735C172.653 29.9493 173.621 32.322 174.04 34.8193C172.873 35.5671 171.515 35.9599 170.13 35.95C170.083 35.7683 170.036 35.5866 169.982 35.4049C169.58 33.9977 168.983 32.6542 168.208 31.4137C168.314 32.7513 168.133 34.0962 167.677 35.3578C166.945 35.0245 166.161 34.8218 165.359 34.7588C164.706 34.7587 164.062 34.9108 163.478 35.203C162.799 32.9483 162.174 30.8753 161.731 29.3878C161.717 33.1165 156.261 36.3673 150.308 35.8962C150.093 35.7616 152.25 29.6302 152.042 29.4888C151.565 29.1725 151.101 28.8292 150.637 28.4927C152.586 25.4774 154.703 22.2468 154.34 21.7623C154.367 22.3613 152.23 25.2419 149.905 27.961C148.615 27.012 155.946 11.5724 152.324 10.3205C152.263 10.8657 151.464 10.8657 150.49 10.7513C150.233 9.85177 149.85 8.99304 149.354 8.20041C149.419 8.99885 149.323 9.80216 149.072 10.5628C148.11 10.5631 147.15 10.6646 146.21 10.8657C145.992 10.5225 145.752 10.1943 145.491 9.88302C145.516 10.2624 145.505 10.6433 145.457 11.0205C144.496 11.2291 143.703 11.4714 143.589 11.6666C142.837 11.3906 144.12 10.1455 143.65 9.49938C142.454 7.8841 144.227 5.52845 145.35 3.85927C147.654 0.44022 152.714 -0.744346 156.295 1.30843C156.456 0.74979 157.283 0.379631 158.344 0.130604C158.794 0.031264 159.255 -0.011697 159.715 0.00271826C164.284 0.0834777 170.627 3.85926 170.875 8.42926C170.896 8.88692 170.929 9.38497 170.963 9.91666C171.285 15.0318 170.889 19.7499 174.376 23.492C175.639 24.8448 175.653 31.2522 175.169 34.5501C173.912 33.2242 173.019 28.0687 171.205 27.8735Z" fill="#2F2E41"/>
<path d="M67.085 17.3811C66.1373 19.7453 63.4636 24.3947 63.1015 26.931L63.2645 26.7705C63.5754 27.3025 63.9288 27.8086 64.321 28.2836C65.0241 27.544 65.8733 26.9591 66.8144 26.5663C66.3005 27.6226 66.0028 28.7712 65.939 29.9445C66.948 33.1126 71.6125 31.7018 74.3455 31.3559C77.0747 34.4829 80.7057 35.2989 85.4605 33.5011C86.7903 33.6383 88.2789 33.7215 89.2108 32.9344C90.1426 32.1473 89.5877 30.6897 90.0891 29.5872C93.6602 21.7341 90.3645 18.9008 87.5644 15.3399C86.9482 14.5563 86.9507 13.3869 86.2009 12.6392C85.1606 11.6029 83.5658 11.2841 82.0955 11.0288C82.4774 11.0489 82.8581 10.9703 83.2009 10.8003C83.5437 10.6304 83.8371 10.375 84.0528 10.0586C84.242 9.7398 84.3396 9.37489 84.3349 9.00406C84.3302 8.63324 84.2233 8.27092 84.0261 7.95707C83.5003 7.08381 82.4076 6.576 81.3534 6.44914C80.3148 6.37849 79.2715 6.46833 78.2602 6.71548C77.6051 6.80179 76.9707 7.0049 76.3871 7.3152C76.1118 7.46236 75.8878 7.69022 75.7452 7.96831C75.6026 8.2464 75.5481 8.56147 75.5891 8.87141C75.6769 9.15761 75.8281 9.42027 76.0314 9.63978C76.2348 9.85928 76.4849 10.03 76.7633 10.1391C77.1877 10.3189 77.6341 10.4413 78.0907 10.5031C75.9933 10.2305 73.8628 10.604 71.9825 11.5741C69.626 12.8331 68.0359 15.0181 67.085 17.3811Z" fill="#2F2E41"/>
<path d="M79.8445 30.6369C84.4966 30.6369 88.2678 26.8593 88.2678 22.1993C88.2678 17.5394 84.4966 13.7617 79.8445 13.7617C75.1924 13.7617 71.4211 17.5394 71.4211 22.1993C71.4211 26.8593 75.1924 30.6369 79.8445 30.6369Z" fill="#C78F8F"/>
<path d="M71.7391 17.6757C72.2275 19.1543 73.6232 19.6307 74.9132 19.9279C75.3199 20.0229 75.7292 20.1113 76.1422 20.1901C76.2946 19.9992 76.4567 19.8122 76.626 19.6354C77.329 18.8958 78.1782 18.3109 79.1194 17.9181C78.7124 18.7525 78.4419 19.6469 78.3183 20.5673C79.0981 20.6806 79.8823 20.7732 80.6708 20.8451C81.3379 20.9873 82.0341 20.8674 82.6154 20.5101C83.1968 20.1528 83.6189 19.5854 83.7945 18.9252C84.5123 20.1011 85.3611 21.2084 86.5218 21.6755C87.1855 21.9143 87.9082 21.934 88.5839 21.7315C89.2595 21.529 89.8527 21.1151 90.2764 20.5503C90.9457 19.629 91.4097 18.5746 91.6372 17.4582C91.9666 16.1489 92.1495 14.6406 91.5028 13.8099C90.9847 13.1375 90.091 13.1255 89.2663 13.1851C87.4462 13.325 85.6453 13.652 83.892 14.1611L83.7436 14.4954C84.0449 12.6822 83.3913 10.9377 82.1821 10.3172C81.3664 9.90242 80.3851 9.97197 79.4316 10.0561C78.2069 10.1109 76.9968 10.3453 75.84 10.7519C74.5129 11.2632 73.3759 12.1728 72.5847 13.3562C71.7383 14.6433 71.3178 16.3988 71.7391 17.6757Z" fill="#2F2E41"/>
<path d="M83.7474 9.78756C83.6643 9.76299 83.8796 9.79455 83.8049 9.79657C83.842 9.79442 83.8789 9.78925 83.9152 9.7811C83.9213 9.77986 84.0052 9.75306 83.9495 9.77276C84.0746 9.73529 84.1862 9.66234 84.2708 9.56271C84.4687 9.31762 84.6239 9.04088 84.73 8.74412C84.8638 8.35196 85.079 7.99259 85.3613 7.68959C85.4415 7.60898 85.5394 7.54842 85.6473 7.51285C85.7552 7.47728 85.8699 7.46768 85.9822 7.48485C86.0944 7.50201 86.2011 7.54546 86.2935 7.61165C86.3858 7.67784 86.4613 7.76491 86.5138 7.8658C86.6203 8.25502 86.5838 8.66962 86.4109 9.03417C86.2902 9.40512 86.1105 9.75413 85.8788 10.0677C85.4906 10.5806 84.9617 10.9692 84.3568 11.1863C83.6567 11.441 82.8931 11.4628 82.1796 11.2486C82.0853 11.2094 82.0044 11.1436 81.9468 11.0592C81.8892 10.9748 81.8574 10.8755 81.8552 10.7733C81.8529 10.6711 81.8804 10.5704 81.9343 10.4836C81.9882 10.3967 82.0661 10.3275 82.1586 10.2842L83.3487 9.79626C83.4113 9.76839 83.4787 9.75315 83.5472 9.75142C83.6157 9.74969 83.6838 9.7615 83.7478 9.78617C83.8117 9.81085 83.8701 9.8479 83.9197 9.89522C83.9693 9.94254 84.0091 9.99919 84.0369 10.0619C84.0646 10.1247 84.0797 10.1923 84.0814 10.2609C84.083 10.3295 84.0711 10.3977 84.0464 10.4617C84.0216 10.5257 83.9846 10.5842 83.9373 10.6338C83.89 10.6835 83.8333 10.7233 83.7707 10.7509L83.7684 10.7519L82.5784 11.2399L82.5574 10.2755C82.7058 10.3184 82.8586 10.3446 83.0129 10.3535C83.1775 10.37 83.3437 10.363 83.5063 10.3327C83.6621 10.3122 83.8152 10.2748 83.9629 10.2212C84.0575 10.1866 84.1503 10.1472 84.2409 10.1031C84.2738 10.0871 84.3064 10.0705 84.3387 10.0533C84.3364 10.0545 84.4749 9.97376 84.4141 10.0117C84.568 9.91318 84.7125 9.8005 84.8455 9.67512C84.8925 9.63066 84.9357 9.58243 84.9749 9.53091C85.0427 9.44748 85.1055 9.36015 85.1631 9.26938C85.2804 9.07714 85.3732 8.87103 85.4396 8.65579C85.4698 8.56534 85.4954 8.47336 85.5161 8.38025C85.5218 8.32913 85.531 8.27847 85.5437 8.22861C85.5878 8.10982 85.5353 8.29797 85.5861 8.34945L85.8055 8.51137C85.8467 8.52367 85.8901 8.52652 85.9325 8.51971C85.975 8.5129 86.0154 8.49661 86.0507 8.47205C86.0766 8.43542 86.071 8.4415 86.0336 8.49028C85.9902 8.54769 85.9504 8.60782 85.9145 8.67028C85.8359 8.81732 85.7648 8.96828 85.7015 9.12255C85.5705 9.45065 85.405 9.7638 85.2077 10.0567C85.0143 10.3529 84.7325 10.5805 84.4025 10.7069C84.0725 10.8333 83.711 10.8521 83.3697 10.7607C83.2416 10.7096 83.1386 10.6101 83.0831 10.4837C83.0276 10.3573 83.0239 10.214 83.0728 10.0849C83.1252 9.95767 83.2246 9.85565 83.3504 9.80023C83.4761 9.7448 83.6184 9.74026 83.7474 9.78756Z" fill="#2F2E41"/>
</g>
<defs>
<clipPath id="clip0_680_19407">
<rect width="300" height="200" fill="white"/>
</clipPath>
</defs>
</svg>
